<svg xmlns="http://www.w3.org/2000/svg"  viewBox="0 0 48 48" width="48px" height="48px" fill="url(#5UoCiDxI3~EHom8I9pxyHa)"><linearGradient id="5UoCiDxI3~EHom8I9pxyHa" x1="10.377" x2="38.577" y1="10.377" y2="38.577" gradientUnits="userSpaceOnUse"><stop offset="0" stop-color="#dfe9f2"/><stop offset=".998" stop-color="#9ea7b0"/></linearGradient><path fill="url(#5UoCiDxI3~EHom8I9pxyHa)" d="M44,24c0,11.045-8.955,20-20,20S4,35.045,4,24S12.955,4,24,4S44,12.955,44,24z"/><linearGradient id="5UoCiDxI3~EHom8I9pxyHb" x1="9.741" x2="37.927" y1="9.741" y2="37.927" gradientUnits="userSpaceOnUse"><stop offset="0" stop-color="#0d61a9"/><stop offset="1" stop-color="#16528c"/></linearGradient><path fill="url(#5UoCiDxI3~EHom8I9pxyHb)" d="M24,4C12.955,4,4,12.955,4,24h20V4z"/><circle cx="21" cy="21" r="1" fill="#99f0ff"/><circle cx="17" cy="21" r="1" fill="#99f0ff"/><circle cx="13" cy="21" r="1" fill="#99f0ff"/><circle cx="9" cy="21" r="1" fill="#99f0ff"/><circle cx="19" cy="17" r="1" fill="#99f0ff"/><circle cx="15" cy="17" r="1" fill="#99f0ff"/><circle cx="11" cy="17" r="1" fill="#99f0ff"/><circle cx="7" cy="17" r="1" fill="#99f0ff"/><circle cx="21" cy="13" r="1" fill="#99f0ff"/><circle cx="17" cy="13" r="1" fill="#99f0ff"/><circle cx="13" cy="13" r="1" fill="#99f0ff"/><circle cx="21" cy="5" r="1" fill="#99f0ff"/><path fill="#99f0ff" d="M17,6c0.552,0,1-0.448,1-1c0-0.027-0.013-0.049-0.015-0.076c-0.606,0.191-1.2,0.407-1.78,0.653	C16.387,5.827,16.667,6,17,6z"/><circle cx="9" cy="13" r="1" fill="#99f0ff"/><circle cx="19" cy="9" r="1" fill="#99f0ff"/><circle cx="15" cy="9" r="1" fill="#99f0ff"/><path fill="#99f0ff" d="M11,10c0.552,0,1-0.448,1-1c0-0.29-0.128-0.546-0.325-0.729c-0.516,0.405-1.011,0.832-1.484,1.285	C10.371,9.818,10.658,10,11,10z"/><path fill="#99f0ff" d="M5,22c0.552,0,1-0.448,1-1c0-0.552-0.448-1-1-1c-0.245,0-0.462,0.098-0.636,0.245	c-0.08,0.421-0.142,0.849-0.195,1.279C4.346,21.803,4.644,22,5,22z"/><linearGradient id="5UoCiDxI3~EHom8I9pxyHc" x1="9.701" x2="38.7" y1="9.841" y2="38.84" gradientUnits="userSpaceOnUse"><stop offset="0" stop-color="#db3542"/><stop offset=".996" stop-color="#ba0b1a"/></linearGradient><path fill="url(#5UoCiDxI3~EHom8I9pxyHc)" d="M44,24H24v-4h19.598C43.861,21.293,44,22.63,44,24z M12.037,40h23.926	c1.519-1.138,2.868-2.483,4.009-4H8.028C9.169,37.517,10.518,38.862,12.037,40z M24,4v4h11.963C32.624,5.499,28.492,4,24,4z M39.972,12H24v4h18.324C41.698,14.568,40.901,13.233,39.972,12z M5.676,32h36.649c0.556-1.271,0.991-2.607,1.274-4H4.402	C4.685,29.393,5.12,30.729,5.676,32z"/></svg>