<svg xmlns="http://www.w3.org/2000/svg"  viewBox="0 0 48 48" width="48px" height="48px" baseProfile="basic" fill="url(#no0LygUU_ziLsxOHKkxh-a)"><linearGradient id="no0LygUU_ziLsxOHKkxh-a" x1="10.125" x2="33.659" y1="4.831" y2="51.02" gradientUnits="userSpaceOnUse"><stop offset="0" stop-color="#0d61a9"/><stop offset="1" stop-color="#16528c"/></linearGradient><path fill="url(#no0LygUU_ziLsxOHKkxh-a)" d="M27,4.249C26.019,4.101,25.022,4,24,4C12.954,4,4,12.954,4,24c0,1.022,0.101,2.019,0.249,3	L28,28L27,4.249z"/><linearGradient id="no0LygUU_ziLsxOHKkxh-b" x1="13.405" x2="55.281" y1="3.205" y2="85.393" gradientUnits="userSpaceOnUse"><stop offset="0" stop-color="#dfe9f2"/><stop offset=".998" stop-color="#9ea7b0"/></linearGradient><path fill="url(#no0LygUU_ziLsxOHKkxh-b)" d="M24,44c3.112,0,6.047-0.732,8.674-2L24,41l-8.674,1C17.953,43.268,20.888,44,24,44z M10.802,39L24,40l13.198-1c1.025-0.902,1.952-1.907,2.775-3l-15.974-1L8.027,36C8.849,37.093,9.777,38.098,10.802,39z M6.157,33	L24,34l17.843-1c0.486-0.961,0.911-1.958,1.239-3l-19.083-1L4.918,30C5.246,31.042,5.671,32.039,6.157,33z M27,27l9,1l7.751-1	C43.899,26.019,44,25.022,44,24l-8-1l-9,1V27z M27,21l9,1l7.751-1c-0.155-1.025-0.365-2.032-0.669-3L36,17l-9,1V21z M27,15l7,1	l7.843-1c-0.535-1.059-1.163-2.06-1.87-3L34,11l-7,1V15z M27,6v3l4,1l6.198-1c-1.358-1.196-2.877-2.205-4.524-3L28,5L27,6z"/><linearGradient id="no0LygUU_ziLsxOHKkxh-c" x1="14.829" x2="44.795" y1="6.001" y2="64.812" gradientUnits="userSpaceOnUse"><stop offset="0" stop-color="#ee3d4a"/><stop offset="1" stop-color="#e52030"/></linearGradient><path fill="url(#no0LygUU_ziLsxOHKkxh-c)" d="M15.326,42h17.348c1.647-0.795,3.166-1.804,4.524-3H10.802	C12.16,40.196,13.679,41.205,15.326,42z M27,24h17c0-1.022-0.101-2.019-0.249-3H27V24z M27,18h16.082	c-0.327-1.042-0.753-2.039-1.239-3H27V18z M32.674,6C30.91,5.148,29.006,4.552,27,4.249V6H32.674z M4.249,27	c0.155,1.025,0.365,2.032,0.669,3h38.163c0.304-0.968,0.515-1.975,0.669-3H27H4.249z M8.027,36h31.946	c0.708-0.94,1.335-1.941,1.87-3H6.157C6.692,34.059,7.32,35.06,8.027,36z M27,12h12.973c-0.822-1.093-1.75-2.098-2.775-3H27V12z"/><linearGradient id="no0LygUU_ziLsxOHKkxh-d" x1="13.236" x2="21.876" y1="9.78" y2="26.736" gradientUnits="userSpaceOnUse"><stop offset="0" stop-color="#ffd000"/><stop offset="1" stop-color="#ffc107"/></linearGradient><path fill="url(#no0LygUU_ziLsxOHKkxh-d)" d="M14.02,11.07c-3.324,0-6.02,2.688-6.02,6s2.695,6,6.02,6c1.203,0,2.32-0.352,3.258-0.957	c-0.547,0.191-1.133,0.293-1.742,0.293C12.586,22.406,10,19.938,10,17s2.586-5.234,5.531-5.234c0.652,0,1.277,0.117,1.855,0.332	C16.426,11.449,15.266,11.07,14.02,11.07z M25.004,20.121l-2.535-1.32l0.75,2.707l-1.695-2.266L20.992,22l-0.52-2.758l-1.703,2.262	l0.758-2.707l-2.539,1.316l1.887-2.117L16,18.105l2.641-1.109l-2.637-1.117l2.875,0.117l-1.883-2.121l2.535,1.324l-0.75-2.707	l1.699,2.266L21.008,12l0.52,2.758l1.703-2.262l-0.758,2.707l2.539-1.316l-1.887,2.117L26,15.895l-2.641,1.109l2.637,1.117	l-2.875-0.117L25.004,20.121z"/></svg>