<svg xmlns="http://www.w3.org/2000/svg"  viewBox="0 0 48 48" width="48px" height="48px" fill="url(#YuB6aLZ3ARHuIJi_gPXBxa)"><linearGradient id="YuB6aLZ3ARHuIJi_gPXBxa" x1="18.547" x2="33.946" y1="10.923" y2="47.851" gradientUnits="userSpaceOnUse"><stop offset="0" stop-color="#0d61a9"/><stop offset="1" stop-color="#16528c"/></linearGradient><path fill="url(#YuB6aLZ3ARHuIJi_gPXBxa)" d="M44,24c0,11.046-8.954,20-20,20S4,35.046,4,24c0-2.216,0.36-4.348,1.026-6.341	C6.311,13.812,14.489,11,14.489,11s0.04-4.693,1.507-5.334C18.447,4.594,21.154,4,24,4C35.046,4,44,12.954,44,24z"/><linearGradient id="YuB6aLZ3ARHuIJi_gPXBxb" x1="19.923" x2="35.18" y1="13.646" y2="47.308" gradientUnits="userSpaceOnUse"><stop offset="0" stop-color="#dfe9f2"/><stop offset=".998" stop-color="#9ea7b0"/></linearGradient><path fill="url(#YuB6aLZ3ARHuIJi_gPXBxb)" d="M13,28l0.594,1.891l1.812-0.703l-1.074,1.656L16,31.859l-1.93,0.172L14.336,34L13,32.559	L11.664,34l0.266-1.969L10,31.859l1.668-1.015l-1.074-1.656l1.812,0.707L13,28z M34.5,31l0.297,0.945l0.906-0.351l-0.535,0.828	L36,32.93l-0.965,0.086L35.168,34L34.5,33.281L33.832,34l0.133-0.984L33,32.93l0.832-0.508l-0.535-0.828l0.906,0.351L34.5,31z M29.465,21.984l0.297,0.946l0.906-0.352l-0.535,0.828l0.832,0.508L30,24l0.133,0.984l-0.668-0.718l-0.668,0.718L28.93,24	l-0.965-0.086l0.836-0.508l-0.539-0.828l0.906,0.352L29.465,21.984z M34.5,16l0.297,0.945l0.906-0.351l-0.535,0.828L36,17.93	l-0.965,0.086L35.168,19L34.5,18.281L33.832,19l0.133-0.984L33,17.93l0.832-0.508l-0.535-0.828l0.906,0.351L34.5,16z M40.5,21	l0.297,0.945l0.906-0.351l-0.535,0.828L42,22.93l-0.965,0.086L41.168,24L40.5,23.281L39.832,24l0.133-0.984L39,22.93l0.832-0.508	l-0.535-0.828l0.906,0.351L40.5,21z M37,25l0.273,0.707L38,25.766l-0.555,0.492L37.617,27L37,26.598L36.383,27l0.172-0.742	L36,25.766l0.727-0.059L37,25z M16,8.594V5.675c-1.432,0.626-2.767,1.424-4,2.352V8.31l-0.206-0.128	c-3.105,2.399-5.483,5.683-6.753,9.483L12,13.32V18h4v-4.965L23.949,18H25v-2.609L21.171,13H25V9h-4.421L25,6.238V4.05	C24.667,4.034,24.338,4,24,4c-0.235,0-0.464,0.027-0.697,0.035L16,8.594z"/><linearGradient id="YuB6aLZ3ARHuIJi_gPXBxc" x1="13.237" x2="22.373" y1="6.851" y2="24.305" gradientUnits="userSpaceOnUse"><stop offset=".008" stop-color="#f44f5a"/><stop offset=".447" stop-color="#ee3d4a"/><stop offset="1" stop-color="#e52030"/></linearGradient><path fill="url(#YuB6aLZ3ARHuIJi_gPXBxc)" d="M13,12v6h2v-6h10v-2H15V6.157c-0.689,0.348-1.36,0.725-2,1.148V10H9.729	c-0.613,0.625-1.174,1.299-1.701,2H13z M11.641,13H9.898l-3.972,2.479c-0.229,0.484-0.437,0.977-0.627,1.481L11.641,13z M24.213,4.011L16.223,9h1.746L25,4.609V4.05C24.738,4.037,24.478,4.014,24.213,4.011z M25,15.934L20.301,13h-1.742L25,17.02V15.934	z"/></svg>