<svg xmlns="http://www.w3.org/2000/svg"  viewBox="0 0 48 48" width="48px" height="48px" fill="url(#iNwehTLLruDPfe_m7LbmYa)"><linearGradient id="iNwehTLLruDPfe_m7LbmYa" x1="20.625" x2="30.184" y1="12.602" y2="44.881" gradientUnits="userSpaceOnUse"><stop offset="0" stop-color="#dfe9f2"/><stop offset=".998" stop-color="#9ea7b0"/></linearGradient><path fill="url(#iNwehTLLruDPfe_m7LbmYa)" d="M32,5.675C29.549,4.604,26.846,4,24,4s-5.549,0.604-8,1.675v36.649	C18.451,43.396,21.154,44,24,44s5.549-0.604,8-1.675V5.675z"/><linearGradient id="iNwehTLLruDPfe_m7LbmYb" x1="31.258" x2="40.376" y1="12.867" y2="37.922" gradientUnits="userSpaceOnUse"><stop offset=".008" stop-color="#f44f5a"/><stop offset=".447" stop-color="#ee3d4a"/><stop offset="1" stop-color="#e52030"/></linearGradient><path fill="url(#iNwehTLLruDPfe_m7LbmYb)" d="M44,24c0-8.199-4.939-15.237-12-18.325v36.649C39.061,39.237,44,32.199,44,24z"/><linearGradient id="iNwehTLLruDPfe_m7LbmYc" x1="8.413" x2="14.87" y1="9.081" y2="37.158" gradientUnits="userSpaceOnUse"><stop offset="0" stop-color="#21ad64"/><stop offset="1" stop-color="#088242"/></linearGradient><path fill="url(#iNwehTLLruDPfe_m7LbmYc)" d="M4,24c0,8.199,4.939,15.237,12,18.325V5.675C8.939,8.763,4,15.801,4,24z"/><path fill="#039be5" d="M25.906,26.48c-0.258,0.07-0.711,0.145-1.258,0.078c-0.543-0.066-1.145,0.035-1.559-0.184	c-0.516,0.152-0.738-0.281-0.82-0.598c-0.055,0.285-0.051,0.441-0.258,0.383c-0.207-0.063-0.844-0.363-0.996-0.422	c-0.156-0.063-0.191,0.082,0.063,0.223c0.25,0.137,0.484,0.297,0.492,0.391c0.004,0.098-0.219,0.219-0.297,0.258	c0.379,0,0.797,0.086,0.934,0.117c0.254,0.059,0.27,0.242-0.145,0.531c1.051-0.121,0.883,0.414,1.414,0.41	c0.391-0.004,0.949-0.008,1.129-0.008c0.422,0,0.445-0.297,0.59-0.344c0.32-0.105,0.652-0.203,0.906-0.289	c-0.258-0.059-0.402-0.125-0.402-0.188c0-0.059,0.516-0.266,0.766-0.371C26.375,26.438,26.164,26.406,25.906,26.48z"/><path fill="#fbc02d" d="M25.195,26.25c-0.063-0.094-0.211-0.113-0.289-0.008c-0.434-0.09-1.402-0.063-1.719,0	c-0.074-0.105-0.223-0.086-0.285,0.008c-0.066,0.098-0.023,0.219,0.051,0.266c-0.082,0.125-0.051,0.465,0,0.609	c-0.074,0.047-0.117,0.164-0.051,0.266c0.063,0.094,0.211,0.113,0.285,0.004c0.363,0.152,1.348,0.152,1.719,0	c0.078,0.109,0.227,0.086,0.289-0.004c0.066-0.102,0.023-0.219-0.051-0.266c0.051-0.145,0.078-0.484,0-0.609	C25.219,26.469,25.262,26.348,25.195,26.25z"/><path fill="#bf360c" d="M25.234,26.223c-0.039-0.063-0.113-0.102-0.188-0.102c-0.063,0-0.117,0.023-0.156,0.066	c-0.355-0.066-0.988-0.063-1.406-0.031c0,0,0,0-0.004,0s-0.008,0-0.016,0v0.004c-0.098,0.008-0.195,0.016-0.258,0.027	c-0.039-0.043-0.098-0.066-0.156-0.066c-0.074,0-0.148,0.039-0.191,0.102c-0.035,0.051-0.051,0.117-0.035,0.18	c0.008,0.047,0.031,0.094,0.066,0.125c-0.063,0.152-0.039,0.434,0.004,0.578c-0.035,0.035-0.063,0.082-0.07,0.129	c-0.016,0.066,0,0.129,0.035,0.184c0.043,0.063,0.117,0.102,0.191,0.102c0.059,0,0.113-0.023,0.152-0.063	c0.191,0.066,0.516,0.102,0.84,0.102c0.555,0,0.805-0.086,0.852-0.102c0.039,0.039,0.094,0.063,0.152,0.063	c0.074,0,0.148-0.039,0.188-0.102c0.039-0.055,0.051-0.117,0.039-0.184c-0.012-0.047-0.035-0.094-0.074-0.129	c0.043-0.145,0.066-0.426,0.008-0.578c0.031-0.031,0.059-0.078,0.066-0.125C25.285,26.34,25.273,26.273,25.234,26.223z M23.246,27.359c0.023-0.07,0.012-0.141-0.023-0.18c-0.051-0.051-0.121-0.063-0.184-0.027l0.051,0.086	c0.031-0.02,0.051,0,0.059,0.008c0.023,0.027,0.031,0.07,0,0.121c-0.023,0.031-0.059,0.051-0.098,0.051	c-0.043,0-0.086-0.02-0.109-0.059c-0.027-0.039-0.027-0.078-0.02-0.102c0.008-0.039,0.027-0.07,0.059-0.09l0.031-0.023L23,27.109	c-0.051-0.141-0.074-0.457-0.008-0.566l0.027-0.039l-0.039-0.027c-0.031-0.02-0.055-0.055-0.059-0.094	c-0.008-0.023-0.008-0.063,0.02-0.102c0.023-0.035,0.066-0.059,0.109-0.059c0.039,0,0.07,0.02,0.094,0.051	c0.035,0.051,0.027,0.094,0.004,0.121c-0.012,0.008-0.035,0.023-0.059,0.008l-0.051,0.086c0.023,0.016,0.051,0.02,0.074,0.02	c0.039,0,0.078-0.016,0.105-0.047c0.035-0.035,0.043-0.098,0.031-0.16c0.133,0.027,0.25,0.313,0.352,0.57	c0.09,0.238,0.172,0.465,0.293,0.582C23.637,27.445,23.398,27.414,23.246,27.359z M24.098,27.457	c-0.164-0.016-0.289-0.336-0.402-0.621c-0.094-0.238-0.184-0.457-0.301-0.57c0.027-0.004,0.055-0.004,0.086-0.008	c0.148,0,0.281,0.313,0.402,0.59c0.105,0.242,0.211,0.484,0.344,0.605C24.184,27.453,24.141,27.457,24.098,27.457z M24.418,27.441	c-0.172-0.012-0.316-0.34-0.445-0.633c-0.098-0.23-0.195-0.445-0.316-0.563c0.035,0,0.07-0.004,0.109-0.004	c0.145,0.012,0.281,0.332,0.41,0.609c0.105,0.242,0.211,0.469,0.34,0.582C24.484,27.434,24.449,27.438,24.418,27.441z M25.102,26.543c0.066,0.105,0.047,0.422-0.004,0.566l-0.016,0.035l0.035,0.02c0.027,0.02,0.051,0.055,0.059,0.094	c0.004,0.023,0.004,0.063-0.023,0.102c-0.023,0.035-0.063,0.059-0.105,0.059c-0.039,0-0.074-0.02-0.098-0.051	c-0.031-0.051-0.023-0.098,0-0.121c0.008-0.008,0.023-0.027,0.059-0.008l0.051-0.086c-0.063-0.035-0.133-0.023-0.184,0.027	c-0.035,0.039-0.047,0.105-0.023,0.18c-0.051,0.02-0.109,0.031-0.176,0.047c-0.141-0.027-0.289-0.332-0.406-0.594	c-0.109-0.238-0.211-0.457-0.336-0.578c0.332-0.004,0.68,0.008,0.914,0.051c-0.016,0.07-0.008,0.137,0.027,0.176	c0.031,0.031,0.066,0.047,0.105,0.047c0.027,0,0.051-0.008,0.078-0.023L25.008,26.4c-0.027,0.02-0.051,0.004-0.063-0.008	c-0.02-0.023-0.031-0.07,0.004-0.117c0.031-0.047,0.074-0.055,0.098-0.055c0.043,0.004,0.082,0.023,0.105,0.059	c0.027,0.039,0.027,0.078,0.023,0.105c-0.008,0.035-0.031,0.07-0.063,0.09L25.074,26.5L25.102,26.543z"/><path fill="#fff" d="M21.301,26.426c-0.23,0-0.23,0.359,0,0.359S21.535,26.426,21.301,26.426z"/><path fill="#1976d2" d="M21.301,26.375c-0.145,0-0.223,0.113-0.223,0.23c0,0.113,0.074,0.23,0.223,0.23	s0.227-0.117,0.227-0.23C21.527,26.488,21.449,26.375,21.301,26.375z M21.301,26.734c-0.098,0-0.125-0.082-0.125-0.129	c0-0.051,0.027-0.133,0.125-0.133c0.086,0,0.125,0.066,0.125,0.133C21.426,26.652,21.398,26.734,21.301,26.734z"/><path fill="#fff" d="M22.219,25.629c-0.23,0-0.23,0.363,0,0.363S22.453,25.629,22.219,25.629z"/><path fill="#1976d2" d="M22.219,25.578c-0.145,0-0.223,0.117-0.223,0.23c0,0.117,0.074,0.23,0.223,0.23	s0.227-0.117,0.227-0.23C22.441,25.695,22.367,25.578,22.219,25.578z M22.219,25.941c-0.098,0-0.125-0.082-0.125-0.133	c0-0.047,0.027-0.133,0.125-0.133c0.086,0,0.125,0.066,0.125,0.133C22.344,25.859,22.316,25.941,22.219,25.941z"/><path fill="#fff" d="M26.016,26.883c-0.234,0-0.234,0.363,0,0.363C26.246,27.246,26.25,26.883,26.016,26.883z"/><path fill="#1976d2" d="M26.016,26.832c-0.148,0-0.227,0.117-0.227,0.23c0,0.117,0.078,0.23,0.227,0.23	c0.145,0,0.223-0.113,0.223-0.23c0-0.059-0.02-0.113-0.055-0.156C26.145,26.859,26.086,26.832,26.016,26.832z M26.016,27.195	c-0.098,0-0.125-0.082-0.125-0.133c0-0.047,0.027-0.129,0.125-0.129c0.086,0,0.125,0.063,0.125,0.129	C26.141,27.113,26.113,27.195,26.016,27.195z"/><path fill="#fbc02d" d="M20.625,25.641c-0.055,0.086,0.078,0.246,0.219,0.313c0.137,0.066,0.262,0.016,0.301-0.047	c0.043-0.059,0-0.215-0.16-0.301C20.844,25.531,20.676,25.559,20.625,25.641z"/><path fill="#fbc02d" d="M22.016,27.055c-0.152,0.051-0.254,0.191-0.238,0.293c0.02,0.098,0.223,0.117,0.367,0.063	c0.141-0.051,0.191-0.191,0.168-0.262C22.277,27.047,22.184,27,22.016,27.055z"/><path fill="#fbc02d" d="M26.301,26.328c-0.145,0.051-0.215,0.172-0.195,0.242c0.031,0.105,0.121,0.152,0.293,0.102	c0.152-0.047,0.32-0.211,0.281-0.301C26.633,26.258,26.445,26.277,26.301,26.328z"/><path fill="#fbc02d" d="M27.086,27.805c-0.031-0.063-0.195-0.125-0.262-0.152c0.016-0.074-0.043-0.297-0.102-0.359	c0.082-0.016,0.117-0.133,0.043-0.195c-0.059-0.047-0.137-0.016-0.164,0.02s-0.027,0.152,0.055,0.176	c0.012,0.074,0.082,0.336,0.023,0.441c0.113,0.004,0.316,0.074,0.371,0.125c-0.027,0.086,0.07,0.152,0.113,0.148	s0.109-0.059,0.102-0.137C27.262,27.773,27.145,27.738,27.086,27.805z"/><path fill="#fbc02d" d="M28.734,26.309c-0.051-0.047-0.223-0.051-0.293-0.055c-0.008-0.074-0.133-0.27-0.207-0.305	c0.074-0.043,0.074-0.168-0.02-0.203c-0.07-0.023-0.133,0.031-0.148,0.074s0.023,0.156,0.109,0.148	c0.035,0.066,0.18,0.293,0.152,0.41c0.113-0.035,0.328-0.035,0.395-0.008c0,0.094,0.109,0.121,0.148,0.102s0.09-0.09,0.059-0.16	C28.891,26.219,28.77,26.227,28.734,26.309z"/><path fill="#fbc02d" d="M29.66,24.324c-0.066-0.016-0.25,0.02-0.313,0.047c-0.039-0.059-0.18-0.184-0.246-0.207	c0.047-0.074-0.012-0.184-0.105-0.168c-0.074,0.012-0.105,0.094-0.098,0.137c0.004,0.047,0.086,0.129,0.16,0.082	c0.059,0.043,0.215,0.207,0.246,0.324c0.082-0.082,0.297-0.145,0.371-0.148c0.039,0.078,0.148,0.051,0.176,0.016	s0.039-0.121-0.02-0.172C29.758,24.172,29.652,24.234,29.66,24.324z"/><path fill="#558b2f" d="M29.469,23.566c-0.047-0.141-0.277-0.422-0.387-0.543c0.082,0.168-0.09,0.512,0.086,0.785	c0.16,0.242,0.148,0.492,0.09,0.781l0.07,0.051c0.051-0.492,0.219-0.57,0.332-0.676c0.172-0.16,0.375-0.434,0.336-0.621	c-0.027-0.117-0.055-0.266-0.043-0.367C29.777,23.031,29.555,23.391,29.469,23.566z"/><path fill="#558b2f" d="M28.996,25.285c0.02-0.145-0.004-0.508-0.031-0.645c-0.426,0.09-0.555,0.668-0.496,1.164	c0.047,0.375-0.125,0.512-0.348,0.711l0.066,0.102c0.168-0.234,0.445-0.52,0.781-0.664c0.34-0.145,0.43-0.816,0.707-1.098	C29.309,24.883,29.176,25.098,28.996,25.285z"/><path fill="#558b2f" d="M27.781,26.227c-0.016,0.223-0.535,0.434-0.711,0.969c-0.07,0.207-0.148,0.34-0.449,0.539	l-0.016,0.082c0.66-0.488,0.855-0.262,1.297-0.414s0.328-0.465,0.441-0.707c-0.195,0.02-0.48,0.141-0.625,0.266	C27.797,26.805,27.84,26.496,27.781,26.227z"/><path fill="#558b2f" d="M26.324,27.496c-0.871-0.117-0.973,0.543-1.41,0.629c0.094,0.086,0.023,0.121,0.48,0.352	c0.461,0.227,1.012-0.23,1.25-0.195c-0.215-0.133-0.527-0.203-0.734-0.242C26.094,27.934,26.199,27.617,26.324,27.496z"/><path fill="#1b5e20" d="M29.305,24.469c-0.371,0.188-0.629,0.805-0.711,1.27c-0.063,0.352-0.141,0.477-0.246,0.613	c-0.367,0.016-0.73,0.344-0.918,0.586c-0.168,0.223-0.461,0.516-0.711,0.742c-0.391-0.031-0.84,0.148-1.094,0.277	c-0.266,0.133-0.504,0.133-0.711,0.094c-0.563-0.102-1.203-0.109-1.848,0.375c-0.047,0.031,0.055,0.152,0.121,0.102	c0.543-0.434,1.289-0.613,1.934-0.199c0.352,0.23,1.316-0.082,1.641-0.648c-0.004,0-0.008,0-0.012,0	c0.098-0.074,0.195-0.141,0.566-0.266c0.5-0.172,0.895-0.578,1.055-1.066c-0.004,0-0.008,0-0.012,0	c0.145-0.156,0.418-0.43,0.645-0.719c0.262-0.344,0.379-0.809,0.324-1.152c0.043-0.223,0.172-0.465,0.305-0.645	c0.148-0.207,0.137-0.688-0.098-1.074C29.223,23.023,29.371,23.797,29.305,24.469z"/><path fill="#827717" d="M21.316,27.285c0.035-0.113-0.02-0.25-0.102-0.246c-0.078,0.008-0.059,0.199-0.016,0.285	c0.039,0.082,0.055,0.199,0.066,0.355l0.129,0.078C21.316,27.66,21.285,27.402,21.316,27.285z"/><path fill="#fbc02d" d="M21.219,27.266c-0.105-0.039-0.137,0.016-0.098,0.102c0.059,0.117,0.195,0.129,0.246,0.043	c0.066-0.117,0.023-0.188-0.023-0.164C21.297,27.273,21.242,27.277,21.219,27.266z"/><path fill="#827717" d="M20.895,27.742c-0.086-0.016-0.27,0.016-0.254,0.098s0.16,0.102,0.254,0.035s0.34-0.102,0.449-0.051	l-0.105-0.105C21.094,27.746,20.984,27.762,20.895,27.742z"/><path fill="#fbc02d" d="M20.848,27.781c0.016,0.023,0.027,0.078,0.02,0.133c-0.012,0.051,0.063,0.078,0.152-0.023	c0.066-0.07,0.016-0.211-0.105-0.234C20.824,27.637,20.785,27.684,20.848,27.781z"/><path fill="#827717" d="M19.672,25.859c0.02,0.09,0.008,0.219-0.016,0.375l0.117,0.098c-0.051-0.113-0.035-0.375,0.023-0.48	c0.059-0.102,0.035-0.25-0.043-0.266C19.676,25.574,19.652,25.766,19.672,25.859z"/><path fill="#fbc02d" d="M19.703,25.809c-0.094-0.066-0.133-0.02-0.113,0.074c0.023,0.125,0.16,0.172,0.227,0.102	c0.094-0.098,0.066-0.172,0.016-0.164C19.781,25.836,19.727,25.824,19.703,25.809z"/><path fill="#827717" d="M19.301,26.23c-0.082-0.035-0.27-0.039-0.266,0.047c0.004,0.082,0.141,0.129,0.246,0.082	s0.414-0.031,0.512,0.039l-0.137-0.141C19.504,26.262,19.387,26.262,19.301,26.23z"/><path fill="#fbc02d" d="M19.25,26.258c0.012,0.023,0.012,0.082-0.004,0.133c-0.02,0.051,0.051,0.09,0.156,0.008	c0.074-0.063,0.047-0.207-0.066-0.254C19.25,26.113,19.199,26.148,19.25,26.258z"/><path fill="#827717" d="M18.844,24.047c-0.016,0.09-0.098,0.219-0.184,0.348l0.047,0.211c0.039-0.203,0.16-0.441,0.254-0.512	c0.094-0.066,0.129-0.215,0.063-0.262S18.863,23.953,18.844,24.047z"/><path fill="#fbc02d" d="M18.895,24.012c-0.059-0.098-0.117-0.074-0.133,0.02c-0.027,0.129,0.078,0.227,0.168,0.191	c0.121-0.051,0.125-0.133,0.074-0.145C18.953,24.07,18.91,24.035,18.895,24.012z"/><path fill="#827717" d="M18.32,24.184c-0.055-0.074-0.215-0.176-0.254-0.102s0.059,0.188,0.172,0.203	c0.113,0.012,0.371,0.195,0.426,0.305l-0.051-0.195C18.48,24.32,18.379,24.258,18.32,24.184z"/><path fill="#fbc02d" d="M18.262,24.18c0,0.027-0.027,0.078-0.066,0.113c-0.039,0.031,0,0.105,0.129,0.09	c0.094-0.016,0.145-0.152,0.066-0.254C18.332,24.055,18.273,24.063,18.262,24.18z"/><path fill="#1b5e20" d="M23.191,28.012c-0.125,0.035-0.211,0.078-0.285-0.055s-0.113-0.078-0.145-0.035	s-0.117,0.043-0.195-0.098c-0.074-0.137-0.137-0.184-0.227-0.176c-0.094,0.012-0.125,0.063-0.074,0.152	c0.047,0.09,0,0.16-0.078,0.074c-0.074-0.082-0.184-0.199-0.273-0.195s-0.176,0.016-0.117,0.105s0.059,0.188-0.047,0.105	c-0.098-0.082-0.168-0.117-0.258-0.109c-0.332-0.141-0.535-0.461-0.547-0.645c-0.012-0.191-0.055-0.141-0.082-0.098	c-0.023,0.047-0.105,0.109-0.141-0.039c-0.043-0.184-0.016-0.344-0.082-0.426c-0.07-0.086-0.145-0.121-0.184,0.031	c-0.035,0.156-0.117,0.07-0.117-0.059c0.004-0.129,0.008-0.254-0.047-0.313c-0.055-0.055-0.098-0.051-0.098,0.07	c0,0.125-0.051,0.148-0.105,0.035c-0.059-0.117-0.148-0.176-0.145-0.055c0.004,0.047,0.008,0.082,0.016,0.117	c-0.363-0.207-0.5-0.375-0.512-0.598c-0.012-0.191-0.008-0.285,0.055-0.363s0.031-0.16-0.051-0.09	c-0.082,0.074-0.16,0.051-0.145-0.078c0.02-0.125,0.07-0.289,0.023-0.383c-0.047-0.098-0.148-0.094-0.176,0.035	c-0.012,0.055-0.055,0.113-0.109,0.113c-0.059,0-0.055-0.133-0.031-0.215c0.023-0.086-0.051-0.145-0.09-0.074	c-0.039,0.074-0.133,0.145-0.172,0.035c-0.004-0.004-0.008-0.004-0.008-0.008c-0.031-0.246-0.195-0.73-0.113-0.828	c0.086-0.105,0.082-0.125,0.023-0.172c-0.063-0.051,0-0.145,0.094-0.184c0.137-0.055,0.195-0.172,0.094-0.164	c-0.172,0.012-0.27-0.02-0.172-0.078c0.125-0.074,0.254-0.164,0.227-0.273c-0.008-0.043-0.066-0.055-0.129-0.031	c-0.066,0.023-0.125-0.016-0.055-0.07c0.098-0.066,0.02-0.137,0.09-0.188c0.07-0.047,0.043-0.113,0-0.105	c-0.043,0.004-0.148,0.125-0.191,0.07s-0.098-0.113-0.145-0.008c-0.074,0.152,0.016,0.25-0.031,0.324	c-0.047,0.07-0.105,0.094-0.164,0.016c-0.055-0.078-0.141-0.055-0.145,0.043c-0.008,0.098,0.035,0.156,0.098,0.246	c0.059,0.09,0.047,0.16-0.063,0.105C18.059,23.43,18.004,23.43,18,23.52c-0.008,0.09,0.039,0.121,0.18,0.188	c0.137,0.066,0.16,0.086,0.172,0.16c0.02,0.133,0.141,0.109,0.184,0.285c0.031,0.152,0.098,0.379,0.113,0.605	c-0.012,0.012-0.016,0.031-0.012,0.055c-0.098-0.039-0.109,0.043-0.074,0.09c0.047,0.063,0.063,0.121,0,0.105	c-0.062-0.016-0.187-0.063-0.164,0.039c0.023,0.098,0.23,0.172,0.363,0.199c0.129,0.027,0.141,0.09,0.078,0.109	c-0.059,0.023-0.098,0.012-0.188,0c-0.094-0.016-0.109,0.059-0.039,0.141c0.074,0.082,0.262,0.105,0.348,0.113	c0.137,0.016,0.148,0.125,0.09,0.121c-0.063,0-0.176-0.043-0.184,0.02c-0.012,0.063,0.152,0.133,0.27,0.121	c0.121-0.012,0.137,0.016,0.164,0.051c0.156,0.223,0.434,0.477,0.625,0.57c-0.012,0.008-0.004,0.027-0.023,0.027	c-0.102-0.004-0.184,0.016-0.098,0.094c0.082,0.082,0.141,0.102,0.195,0.113s0.062,0.086,0.004,0.113	c-0.059,0.027-0.117,0.008-0.168-0.016c-0.055-0.023-0.137,0.008-0.055,0.105c0.078,0.098,0.203,0.145,0.359,0.145	c0.16,0,0.211,0.074,0.117,0.129s-0.16,0.059-0.266,0.039c-0.102-0.016-0.125,0.074,0.02,0.164s0.281,0.07,0.41,0.023	c0.129-0.043,0.137,0.008,0.113,0.051c-0.02,0.039-0.008,0.102,0.105,0.066c0.113-0.039,0.227-0.078,0.367,0.023	c0.113,0.086,0.242,0.199,0.383,0.289c-0.012,0.043-0.012,0.09-0.078,0.109c-0.07,0.02-0.16,0.066-0.195,0.113	c-0.031,0.047-0.035,0.164,0.242,0.121c0.277-0.047,0.289-0.031,0.27,0.059c-0.023,0.09-0.027,0.199,0.133,0.16	c0.203-0.047,0.309-0.207,0.383-0.133c0.043,0.047-0.012,0.113-0.055,0.16c-0.066,0.074,0.09,0.141,0.184,0.066	c0.086-0.07,0.195-0.203,0.258-0.176c0.066,0.023,0.004,0.105-0.02,0.156c-0.023,0.047,0,0.148,0.113,0.094	c0.113-0.059,0.18-0.406,0.523-0.359c0.102-0.195,0.91-0.301,1.574,0.281c0.047,0.047,0.102,0.047,0.164,0.039	c0.063-0.004,0.152,0,0.09-0.055C24.41,28.066,23.75,27.852,23.191,28.012z"/><path fill="#fff" d="M24.18,28.395c-0.012,0.031-0.051,0.117-0.066,0.137c0.145,0.117,0.328,0.219,0.363,0.348	c0.051-0.035,0.098-0.055,0.145-0.059C24.605,28.676,24.324,28.516,24.18,28.395z"/><path fill="#1b5e20" d="M24.113,28.531c-0.016,0.035-0.109,0.07-0.141,0.102c0.125,0.121,0.305,0.25,0.395,0.367	c0.035-0.055,0.074-0.094,0.109-0.121C24.441,28.75,24.258,28.648,24.113,28.531z"/><path fill="#1b5e20" d="M23.855,27.844c-0.168,0.012-0.141,0.082-0.141,0.336c0.008,0.172-0.48,0.285-0.539,0.672	c0.059-0.023,0.129-0.043,0.203-0.031c0.051-0.156,0.531-0.363,0.531-0.664l-0.004-0.066C23.91,27.973,23.914,27.844,23.855,27.844z"/><path fill="#fff" d="M24.09,27.844c-0.027,0-0.059,0-0.094,0c-0.055,0-0.102,0-0.141,0c0.059,0,0.051,0.129,0.051,0.246	c0,0.043,0.004,0.094,0.004,0.145c-0.004-0.004-0.008-0.008-0.012-0.008c-0.047,0.188-0.488,0.352-0.52,0.594	c0.051,0.004,0.098,0.023,0.145,0.063c0.055-0.191,0.41-0.32,0.523-0.516c0.012,0,0.023,0,0.035,0	c0.078,0.016,0.059-0.16,0.059-0.277S24.148,27.84,24.09,27.844z"/><path fill="#dd2c00" d="M24.277,28.313c0-0.004,0-0.012,0-0.016c0.039-0.039,0.059-0.102,0.059-0.203c0-0.008,0-0.012,0-0.02	V28.07c-0.004-0.191-0.047-0.223-0.246-0.227c0.055-0.004,0.051,0.113,0.051,0.223c0,0.004,0.008,0.148-0.094,0.301	c-0.125,0.188-0.465,0.324-0.52,0.512c0.039,0.027,0.074,0.066,0.109,0.121c0.105-0.141,0.414-0.313,0.582-0.566	c0.148,0.098,0.391,0.258,0.406,0.383c0.074-0.008,0.145,0.012,0.203,0.031C24.754,28.539,24.418,28.402,24.277,28.313z"/><path fill="#ef5350" d="M19.902,23.332c-0.16,0.16-0.074,0.313,0.004,0.398c0.082,0.082,0.27,0.191,0.367,0.09	c0.086-0.09,0.105-0.219,0.008-0.383C20.184,23.277,20.027,23.203,19.902,23.332z"/><path fill="#fbc02d" d="M19.68,22.844l0.137,0.254l0.063-0.035l-0.141-0.254L19.68,22.844z"/><path fill="#fbc02d" d="M19.684,22.656c-0.125,0-0.125,0.207,0,0.207C19.805,22.863,19.812,22.656,19.684,22.656z"/><path fill="#e53935" d="M20.109,22.98c-0.082-0.008-0.105,0.035-0.113,0.129c-0.039-0.07-0.09-0.094-0.156-0.055	c-0.055,0.035-0.063,0.082-0.043,0.145c-0.043-0.027-0.086-0.035-0.133,0.012c-0.039,0.043-0.035,0.086-0.008,0.133	c-0.02,0.004-0.035,0.012-0.043,0.039c-0.027,0.066-0.012,0.102,0.082,0.133c0.094,0.023,0.133,0.004,0.148-0.035	c0-0.008-0.004-0.012-0.004-0.016c0.02-0.004,0.039-0.004,0.055-0.02c0.016-0.02,0.02-0.047,0.016-0.078	c0.039,0.027,0.07,0.035,0.102,0.016c0.02-0.016,0.035-0.043,0.039-0.078c0.012,0.004,0.02,0.02,0.035,0.02	c0.07,0.004,0.094-0.051,0.113-0.18C20.219,23.047,20.195,22.988,20.109,22.98z"/><path fill="#00897b" d="M20.613,23.77c-0.313-0.145-0.652,0.086-0.621,0.473c0.035,0.387,0.508,0.711,1.094,0.734	l0.238-0.313C21.016,24.617,21.152,24.023,20.613,23.77z"/><path fill="#00695c" d="M21.121,24.336c-0.074-0.207-0.172-0.461-0.488-0.609c-0.16-0.074-0.344-0.063-0.48,0.035	c-0.148,0.102-0.227,0.285-0.207,0.484c0.035,0.414,0.535,0.758,1.137,0.781h0.023l0.309-0.398l-0.082-0.016	C21.227,24.598,21.187,24.504,21.121,24.336z M21.059,24.926c-0.539-0.031-0.984-0.328-1.016-0.688	c-0.016-0.168,0.047-0.313,0.168-0.395c0.059-0.043,0.133-0.066,0.207-0.066c0.059,0,0.117,0.012,0.172,0.039	c0.281,0.133,0.363,0.355,0.438,0.555c0.055,0.137,0.102,0.266,0.215,0.32L21.059,24.926z"/><path fill="#00897b" d="M21.312,24.555c-0.402,0.266-0.273,0.578-0.16,0.715c0.16,0.191,0.883,0.313,1.387,0.145l0.059-0.328	C22.32,24.809,21.715,24.289,21.312,24.555z"/><path fill="#00695c" d="M21.285,24.516c-0.172,0.113-0.27,0.246-0.293,0.395c-0.027,0.191,0.086,0.348,0.121,0.391	c0.117,0.141,0.488,0.242,0.879,0.242c0.191,0,0.391-0.023,0.563-0.082l0.027-0.012l0.066-0.379l-0.02-0.02	C22.375,24.793,21.73,24.219,21.285,24.516z M22.496,25.375c-0.492,0.148-1.168,0.027-1.309-0.141	c-0.027-0.035-0.117-0.156-0.094-0.309c0.016-0.121,0.098-0.23,0.246-0.328c0.066-0.047,0.145-0.066,0.223-0.066	c0.367,0,0.809,0.402,0.98,0.57L22.496,25.375z"/><path fill="#00897b" d="M22.746,24.867c-0.445,0.277-0.285,0.688-0.023,0.883c0.266,0.191,1.078,0.109,1.434,0.012	s0.449-0.277,0.391-0.52C23.742,24.906,23.191,24.594,22.746,24.867z"/><path fill="#00695c" d="M24.59,25.207l-0.023-0.012c-0.105-0.043-0.211-0.09-0.313-0.133	c-0.652-0.285-1.125-0.488-1.535-0.238c-0.242,0.152-0.297,0.332-0.305,0.453c-0.008,0.188,0.102,0.383,0.277,0.512	c0.129,0.094,0.363,0.125,0.609,0.125c0.332,0,0.691-0.055,0.867-0.105c0.355-0.094,0.496-0.285,0.426-0.578L24.59,25.207z M24.145,25.715c-0.344,0.094-1.145,0.176-1.391-0.004c-0.121-0.09-0.246-0.246-0.238-0.43c0.008-0.141,0.094-0.27,0.258-0.371	c0.109-0.066,0.23-0.098,0.359-0.098c0.297,0,0.648,0.152,1.082,0.344c0.094,0.039,0.188,0.082,0.289,0.121	C24.535,25.434,24.512,25.613,24.145,25.715z"/><path fill="#00897b" d="M26.32,25.371c-0.121,0.16-0.098,0.301-0.535,0.281c-0.047,0.09-0.133,0.176-0.309,0.246	c0.074,0.012,0.281,0.086,0.637,0.199c0.355,0.117,0.59,0.063,0.934-0.137s0.289-0.527,0-0.766	C26.785,24.973,26.445,25.195,26.32,25.371z"/><path fill="#00695c" d="M26.738,25.055c-0.191,0.023-0.371,0.16-0.461,0.285c-0.023,0.031-0.039,0.063-0.059,0.094	c-0.066,0.113-0.102,0.18-0.434,0.172l-0.031-0.004l-0.016,0.031c-0.047,0.09-0.137,0.164-0.281,0.223l-0.168,0.066l0.18,0.027	c0.051,0.008,0.184,0.051,0.379,0.117l0.25,0.082c0.129,0.039,0.246,0.059,0.352,0.059c0.215,0,0.402-0.074,0.621-0.203	c0.199-0.113,0.254-0.258,0.262-0.355c0.016-0.164-0.078-0.344-0.254-0.492C26.98,25.074,26.855,25.039,26.738,25.055z M27.02,25.918c-0.352,0.207-0.57,0.238-0.891,0.133l-0.25-0.078c-0.105-0.035-0.195-0.066-0.262-0.086	c0.09-0.051,0.152-0.109,0.195-0.184c0.016,0,0.027,0,0.043,0c0.297,0,0.371-0.086,0.449-0.223c0.016-0.027,0.031-0.055,0.055-0.082	c0.074-0.102,0.227-0.223,0.391-0.246c0.102-0.012,0.187,0.016,0.266,0.078c0.148,0.129,0.227,0.277,0.219,0.406	C27.223,25.746,27.148,25.844,27.02,25.918z"/><path fill="#00897b" d="M24.594,25.207c-0.527,0.133-0.563,0.734-0.586,1.434c0,0.051,0.102,0.051,0.309,0.051	s0.316,0.012,0.313-0.074c0.031-0.879,1.285-0.348,1.191-1.207C25.777,25.027,25.121,25.074,24.594,25.207z"/><path fill="#00695c" d="M24.578,25.156c-0.578,0.148-0.602,0.828-0.621,1.484c0,0.098,0.113,0.098,0.359,0.098l0.066,0.004	c0.02,0,0.039,0,0.055,0c0.105,0,0.176-0.008,0.211-0.047c0.016-0.016,0.031-0.039,0.027-0.078c0.016-0.398,0.305-0.477,0.605-0.563	c0.297-0.082,0.641-0.176,0.586-0.648c-0.008-0.102-0.059-0.18-0.141-0.238C25.445,24.973,24.832,25.098,24.578,25.156z M25.254,25.961c-0.309,0.082-0.656,0.18-0.676,0.656v0.012c-0.02,0.012-0.105,0.012-0.191,0.012h-0.07	c-0.113,0-0.223,0-0.258-0.012c0.023-0.754,0.078-1.258,0.547-1.371c0.492-0.125,0.848-0.199,1.066-0.008	c0.055,0.047,0.09,0.098,0.098,0.168C25.812,25.805,25.566,25.871,25.254,25.961z"/><path fill="#ef5350" d="M27.18,25.133c-0.16,0.105-0.203,0.23-0.156,0.328c0.047,0.094,0.242,0.07,0.367-0.008	s0.203-0.234,0.145-0.332C27.477,25.027,27.312,25.051,27.18,25.133z"/><path fill="#fbc02d" d="M27.68,24.945l0.051,0.051l0.195-0.211l-0.051-0.051L27.68,24.945z"/><path fill="#fbc02d" d="M27.855,24.746c0.035,0.121,0.227,0.074,0.191-0.059C28.012,24.563,27.82,24.617,27.855,24.746z"/><path fill="#e53935" d="M27.695,25.121c0.074-0.043,0.098-0.102,0.055-0.168c-0.043-0.063-0.09-0.059-0.148-0.023	c0.02-0.051,0.023-0.102-0.027-0.133c-0.082-0.055-0.121-0.016-0.188,0.098s-0.043,0.176,0.004,0.203	c0.027,0.016,0.047,0.008,0.07,0c0,0.023-0.004,0.043,0.008,0.059c0.016,0.023,0.035,0.023,0.055,0.023	c-0.016,0.023-0.023,0.051-0.02,0.074c0.012,0.074,0.07,0.086,0.191,0.082c0.094-0.008,0.16-0.039,0.148-0.129	C27.828,25.125,27.781,25.113,27.695,25.121z"/><path fill="#ef5350" d="M21.91,24.395c-0.172,0.121-0.219,0.359-0.125,0.512c0.098,0.152,0.254,0.109,0.344,0	s0.074-0.367,0.023-0.457L21.91,24.395z"/><path fill="#fbc02d" d="M22.027,24.289l0.066,0.023l0.074-0.289l-0.066-0.016L22.027,24.289z"/><path fill="#fbc02d" d="M22.145,23.875c-0.125,0-0.125,0.207,0,0.207C22.266,24.082,22.273,23.875,22.145,23.875z"/><path fill="#e53935" d="M22.176,24.156c-0.063,0-0.094,0.051-0.098,0.102c-0.004,0-0.012,0-0.016,0	c0.023-0.063,0-0.148-0.086-0.148c-0.094,0-0.117,0.109-0.078,0.172c-0.031-0.02-0.055-0.051-0.063-0.094	c-0.109,0.113-0.008,0.293,0.141,0.254c0.012,0.023,0.016,0.047,0.043,0.055c0.039,0.012,0.07,0.004,0.102-0.023	c0.074,0.066,0.227,0.008,0.23-0.156c-0.023,0.012-0.066,0.023-0.117,0.027C22.297,24.289,22.285,24.156,22.176,24.156z"/><path fill="#ad6119" d="M25.797,18.379c-0.414-0.238-0.891-0.336-1.359-0.371c-0.367-0.031-0.539,0.039-0.59,0.172	c-0.281,0.008-0.367,0.129-0.441,0.285c-0.145,0.301,0.137,0.336,0.379,0.367s0.508,0.309,0.418,0.695	c-0.105-0.18-0.23-0.355-0.441-0.418c0.043-0.023,0.082-0.051,0.102-0.074c0.059-0.051,0.078-0.094-0.102-0.051	c-0.176,0.039-0.516-0.242-0.754-0.098c0.004-0.055,0.004-0.102,0-0.137c-0.027-0.219-0.063-0.109-0.113,0.012	c-0.027,0.066-0.074,0.121-0.137,0.164c0-0.102-0.012-0.199-0.023-0.273c-0.023-0.133-0.07-0.055-0.074,0.098	c-0.004,0.07-0.02,0.164-0.047,0.262c-0.051,0.027-0.094,0.047-0.141,0.074c0.008-0.066,0.008-0.121-0.02-0.277	c-0.023-0.156-0.09-0.066-0.086,0.023s-0.027,0.324-0.109,0.445c0.02-0.07,0.016-0.164-0.016-0.273	c-0.035-0.137-0.074-0.129-0.066,0.012c0.004,0.129-0.148,0.309-0.289,0.414c-0.184,0.137-0.215,0.223-0.133,0.32	c0.23,0.262,0.918,0.172,1.027,0.199c0.047,0.012,0.09,0.031,0.09,0.109c0,0.043,0.016,0.055,0.055,0.027	c-0.02,0.102-0.059,0.219-0.117,0.293c-0.051,0.066-0.035,0.074,0.039,0.074c-0.051,0.176-0.227,0.328-0.25,0.441	c-0.012,0.059,0,0.098,0.051,0.109c-0.063,0.227-0.219,0.336-0.207,0.566s0.184,0.52,0.16,0.656	c-0.02,0.121,0.074,0.105,0.145,0.059c0.039,0.043,0.082,0.09,0.121,0.133c-0.047,0.121,0.16,0.488,0.328,0.695	c-0.121-0.066-0.254-0.117-0.293-0.074c-0.031,0.035,0.047,0.199,0.219,0.348c-0.195,0.133-0.535,0.336-0.527,0.438	c0.004,0.105,0.238,0.16,0.5,0.195c-0.074,0.117-0.066,0.211,0.141,0.191c0.195-0.02,0.402-0.117,0.512-0.172	c0.098,0.133,0.207,0.168,0.246-0.254c0.043,0.063,0.078,0.113,0.109,0.156c0.125,0.195,0.195,0.293,0.246,0.234	c0.129,0.195,0.199,0.293,0.25,0.402c0.055,0.109,0.164,0.203,0.215-0.125c0.039,0.07,0.074,0.129,0.102,0.18	c0.074,0.129,0.191,0.113,0.242-0.16c0.063,0.113,0.137,0.18,0.152-0.16c0.043,0.117,0.145,0.293,0.129-0.023	c0.25,0.254,0.297,0.289,0.383,0.375c0.086,0.082,0.211,0.102,0.305,0.008c0.164,0.156,0.355,0.113,0.43-0.008	c0.164,0.133,0.434,0.023,0.477-0.121c0.059,0.043,0.129,0.043,0.285,0.035c0.211-0.008,0.434-0.098,0.156-0.301	c-0.598-0.434-1.574-1.098-1.973-1.41c-0.016-0.293-0.043-0.66-0.137-0.977c0.152,0.203,0.27,0.246,0.383,0.277	c0.113,0.027,0.148-0.043,0.332,0.277c0.086,0.148,0.121,0.203,0.211,0.289c0.094,0.082,0.121,0.047,0.023-0.164	c-0.094-0.211-0.285-0.488-0.457-0.695c0.172,0.188,0.176,0.184,0.332,0.246c0.156,0.066,0.293,0.238,0.352,0.426	c0.055,0.184,0.164,0.383,0.199,0.457c0.035,0.07,0.086,0.039,0.047-0.145c-0.043-0.203-0.145-0.516-0.242-0.707	c0.137,0.145,0.313,0.277,0.336,0.535c0.02,0.262,0.086,0.465,0.148,0.574s0.086,0.023,0.078-0.145	c-0.004-0.168-0.047-0.523-0.117-0.82c0.109,0.18,0.18,0.336,0.191,0.441c0.047,0.379,0.211,0.609,0.211,1.031	c0,0.145,0.09,0.367,0.117,0.09c0.039-0.398-0.098-1.152-0.102-1.543c0.051,0.105,0.094,0.219,0.113,0.359	c0.043,0.375,0.172,0.605,0.188,1.016s0.094,0.645,0.137,0.371c0.148-0.934-0.09-1.324-0.039-1.98	c0.082,0.117,0.156,0.246,0.156,0.391c-0.008,1.043,0.098,1.199,0.098,1.695c0,0.18,0.023,0.445,0.137,0.055	c0.121-0.422,0.121-1.039,0.121-1.406C28.316,19.781,26.211,18.621,25.797,18.379z"/><path fill="#c47529" d="M25.797,18.379c-0.414-0.238-0.891-0.336-1.359-0.371c-0.367-0.031-0.539,0.039-0.59,0.172	c-0.281,0.008-0.367,0.129-0.441,0.285c-0.145,0.301,0.137,0.336,0.379,0.367c0.105,0.012,0.219,0.023,0.609-0.004	c0.332-0.023,0.578-0.051,0.875,0.031c0.648,0.18,1.242,0.734,1.641,1.238c0.465,0.582,0.895,1.988,0.895,1.988	c0.082,0.117,0.156,0.246,0.156,0.387c-0.008,1.043,0.098,1.203,0.098,1.695c0,0.184,0.023,0.445,0.137,0.055	c0.121-0.422,0.121-1.039,0.121-1.406C28.316,19.781,26.211,18.621,25.797,18.379z"/><path fill="#9e5817" d="M23.191,23.113c-0.117-0.066-0.25-0.113-0.289-0.07c-0.031,0.031,0.047,0.195,0.219,0.344	c-0.195,0.133-0.535,0.336-0.531,0.438c0.008,0.105,0.238,0.16,0.504,0.199c-0.078,0.113-0.07,0.207,0.141,0.188	c0.195-0.016,0.402-0.117,0.508-0.172c0.098,0.137,0.211,0.172,0.25-0.254c0.023,0.035-0.039-0.172-0.25-0.465	C23.465,23.047,23.031,22.914,23.191,23.113z"/><path fill="#c47529" d="M24.652,23.602c-0.402,0.117-0.34,0.613-0.309,0.574c0.133,0.199,0.203,0.297,0.254,0.402	c0.051,0.109,0.16,0.203,0.211-0.121c0.043,0.07,0.074,0.129,0.105,0.176c0.074,0.129,0.191,0.113,0.242-0.16	c0.063,0.117,0.133,0.18,0.152-0.156c0.039,0.113,0.145,0.289,0.125-0.027c0.254,0.254,0.113-0.238-0.156-0.484	C25.234,23.762,25.105,23.574,24.652,23.602z"/><path fill="#fff" d="M22.203,19.359l-0.285,0.313c-0.008,0.055,0.098,0.059,0.18,0.043s0.18-0.09,0.191-0.18	S22.273,19.355,22.203,19.359z"/><path fill="#fbc02d" d="M22.109,19.82c-0.145-0.125-0.316-0.023-0.391-0.129c-0.074,0.004-0.145,0.086-0.098,0.168	c-0.25,0.156-0.266,0.465-0.148,0.648c0.098,0.152,0.352,0.145,0.418,0.133c-0.129-0.047-0.188-0.359-0.125-0.445	c0.063-0.082,0.195-0.254,0.516,0.102c0.105-0.102,0.207-0.191,0.305-0.199c0.125-0.004,0.254-0.125,0.172-0.234	S22.234,19.93,22.109,19.82z"/><path fill="#fbc02d" d="M25.824,24.93c-0.277,0.004-0.488-0.172-0.668-0.457c-0.035,0.246-0.176,0.332-0.27,0.113	c0.039,0.148-0.215,0.266-0.352,0.211s-0.297,0.004-0.297,0.191c0,0.121,0.055,0.223,0.176,0.254	c-0.023,0.09,0.086,0.219,0.219,0.223c0.133,0.008,0.242-0.113,0.242-0.246c0.176,0.035,0.434-0.156,0.625-0.031	c0.051,0.152,0.207,0.18,0.383,0.078C26.062,25.164,25.984,24.926,25.824,24.93z"/><path fill="#212121" d="M24.406,25.227c-0.168,0.035-0.211,0.293,0.016,0.395c-0.078-0.145,0.156-0.176,0.156-0.25	C24.578,25.301,24.574,25.188,24.406,25.227z"/><path fill="#212121" d="M24.184,24.879c-0.172,0.004-0.301,0.254-0.125,0.387c-0.043-0.207,0.16-0.109,0.223-0.156	C24.34,25.066,24.355,24.871,24.184,24.879z"/><path fill="#212121" d="M25.859,25.148c-0.035,0.039-0.082,0.148-0.004,0.199c0.074,0.051,0.082,0.125,0.016,0.207	c0.246-0.031,0.266-0.223,0.207-0.34C26.02,25.102,25.898,25.109,25.859,25.148z"/><path fill="#fbc02d" d="M22.664,23.055c-0.09-0.129-0.461-0.012-0.645-0.035c-0.148-0.031-0.262,0.051-0.277,0.164	c-0.086-0.012-0.156,0.039-0.188,0.156c-0.047,0.004-0.102,0.043-0.102,0.121s0.059,0.25,0.148,0.336	c0.094,0.09,0.129,0.035,0.176-0.055c0.043,0.02,0.094,0.008,0.156-0.055c0.031,0,0.074-0.016,0.125-0.055	c0.113,0.07,0.203,0.113,0.242,0.164c0.039,0.055,0.098,0.043,0.215-0.074c0.191,0.023,0.535,0.086,0.73,0.133	c0.09-0.078,0.215-0.125,0.293-0.145c-0.309-0.094-0.645-0.191-0.758-0.238C22.91,23.34,22.73,23.148,22.664,23.055z"/><path fill="#212121" d="M21.93,23.676c-0.02,0.031-0.07,0.074-0.152,0.066c-0.02,0.035-0.051,0.082-0.094,0.098	c0.02,0.051,0.152,0.043,0.223-0.016c0.148,0.043,0.234-0.023,0.234-0.027c0.039,0,0.078-0.012,0.121-0.039	c-0.063-0.051-0.152-0.098-0.203-0.125C22.023,23.66,21.977,23.672,21.93,23.676z"/><path fill="#212121" d="M21.91,23.332c0.004,0.09,0.082,0.102,0.16,0.082c0.051-0.016,0.066-0.059,0.063-0.168	c-0.004-0.145,0.047-0.195,0.086-0.297C21.961,22.93,21.898,23.148,21.91,23.332z"/><path fill="#558b2f" d="M21.066,19.867c0.09-0.02,0.078,0.047,0.301-0.078c0.082-0.047,0.18-0.203,0.156-0.262	c-0.102,0.113-0.324,0.238-0.406,0.168c-0.078-0.074-0.016-0.176,0.074-0.27c0.094-0.098,0.152-0.273,0.172-0.352	c0.055-0.184-0.031-0.129-0.117-0.047c-0.086,0.078-0.25,0.199-0.414,0.301c-0.168,0.102-0.188,0.223-0.121,0.398	c0.047,0.121,0.063,0.242,0.07,0.355c0.004,0.113,0.145,0.414,0.625,0.223c0.008,0-0.008-0.047,0.004-0.121	c0.027-0.172,0.141-0.254,0.125-0.254C21.348,19.926,21.086,19.98,21.066,19.867z"/><path fill="#558b2f" d="M21.937,20.082c-0.168,0.031-0.215,0.152-0.195,0.273c0.156,0.117,0.223,0.336,0.059,0.469	c-0.531,0.41-1.027,0.824-0.797,1.563c0.172,0.559,0.629,0.457,0.785,0.461l-0.281-0.488c-0.242-0.363-0.168-0.621,0.434-1.098	c0.586-0.457,0.457-0.73,0.34-0.965C22.234,20.242,22.062,20.055,21.937,20.082z"/><path fill="#558b2f" d="M21.453,23.461c-0.047,0-0.086,0.023-0.117,0.004c-0.227-0.141-0.121-0.629-0.449-0.762	c-0.324-0.133-0.285-0.297-0.184-0.52c0.105-0.223,0.07-0.867-0.484-0.879c-0.559-0.012-0.16,0.211,0.016,0.301	c0.18,0.094,0.293,0.199,0.203,0.473c-0.094,0.27-0.238,0.602,0.117,0.867c0.234,0.176,0.309,0.234,0.363,0.535	c0.078,0.453,0.398,0.633,0.77,0.359C21.57,23.82,21.477,23.621,21.453,23.461z"/><path fill="#fbc02d" d="M19.789,21.246c-0.094,0.027-0.113,0.059-0.031,0.133c0.055,0.051,0.008,0.16,0.129,0.191	c0.105,0.031,0.137-0.086,0.109-0.129c-0.016-0.035,0-0.102,0.031-0.125c0.039-0.035,0.07-0.145-0.035-0.172	C19.867,21.109,19.863,21.223,19.789,21.246z"/><path fill="#fbc02d" d="M19.93,21.281c-0.094,0.031-0.113,0.063-0.031,0.137c0.055,0.051,0.008,0.156,0.129,0.191	c0.109,0.031,0.137-0.086,0.109-0.133c-0.016-0.031,0-0.098,0.031-0.125c0.039-0.031,0.07-0.141-0.035-0.168	C20.012,21.148,20.004,21.262,19.93,21.281z"/><path fill="#fbc02d" d="M20.074,21.32c-0.094,0.031-0.117,0.063-0.035,0.137c0.059,0.051,0.008,0.156,0.133,0.191	c0.105,0.031,0.133-0.086,0.109-0.133c-0.02-0.031-0.004-0.098,0.031-0.125c0.039-0.031,0.07-0.141-0.035-0.168	C20.152,21.188,20.145,21.301,20.074,21.32z"/><path fill="#827717" d="M21.937,20.07c-0.082,0.004-0.16,0.086-0.187,0.16c0.395,0.059,0.629,0.68,0.262,0.977	c0.508-0.426,0.453-0.723,0.27-0.91C22.234,20.242,22.066,20.063,21.937,20.07z"/><path fill="#827717" d="M21.531,22.316c-0.133-0.121-0.184-0.359-0.082-0.547c-0.242,0.316-0.285,1.051,0.32,1.078	c0.266,0.012,0.465,0.031,0.449,0.102c-0.008,0.031-0.105,0.137-0.086,0.336c0.047-0.004,0.102,0.004,0.125,0.035	c0.039,0.051,0.02,0.121,0.039,0.152c0.18-0.078,0.492-0.27,0.313-0.738C22.379,22.145,21.754,22.523,21.531,22.316z"/><path fill="#827717" d="M22.312,20c-0.098,0.043-0.207,0.133-0.207,0.133l0.098,0.082c0,0,0.141-0.117,0.219-0.137	c0.082-0.02,0.082-0.094,0.059-0.105C22.457,19.965,22.387,19.969,22.312,20z"/><path fill="#ef6c00" d="M22.027,19.52c-0.043,0.039-0.098,0.141-0.098,0.141s0.074,0.023,0.141,0.012	s0.117-0.035,0.152-0.105c0.047-0.098-0.043-0.188-0.043-0.188S22.07,19.48,22.027,19.52z"/><path fill="#212121" d="M21.984,19.555c-0.004,0.043,0.125,0.043,0.148-0.02c0.027-0.078-0.02-0.098-0.02-0.098	L21.984,19.555z"/><path fill="#fff" d="M22.062,19.539c0,0.012-0.008,0.02-0.016,0.02c-0.012,0-0.02-0.008-0.02-0.02s0.008-0.02,0.02-0.02	C22.055,19.52,22.062,19.527,22.062,19.539z"/><path fill="#827717" d="M21.434,19.207c-0.117-0.047-0.105-0.039-0.105-0.039l-0.035,0.09	c0.063-0.012,0.316,0.094,0.316,0.094S21.551,19.254,21.434,19.207z"/><path fill="#212121" d="M21.039,19.309c0,0.016,0.016,0.027,0.031,0.027s0.027-0.012,0.027-0.027s-0.012-0.027-0.027-0.027	S21.039,19.293,21.039,19.309z"/></svg>