<svg xmlns="http://www.w3.org/2000/svg"  viewBox="0 0 48 48" width="48px" height="48px" fill="url(#qxHGZefLoGyk1rG4uHGF7a)"><linearGradient id="qxHGZefLoGyk1rG4uHGF7a" x1="9.754" x2="37.942" y1="9.754" y2="37.942" gradientUnits="userSpaceOnUse"><stop offset="0" stop-color="#f44f5a"/><stop offset=".443" stop-color="#ee3d4a"/><stop offset="1" stop-color="#e52030"/></linearGradient><path fill="url(#qxHGZefLoGyk1rG4uHGF7a)" d="M41.302,14H6.697C10.157,8.028,16.602,4,24,4S37.843,8.028,41.302,14z M24,44	c7.398,0,13.843-4.028,17.302-10H6.698C10.158,39.972,16.602,44,24,44z"/><linearGradient id="qxHGZefLoGyk1rG4uHGF7b" x1="10.067" x2="37.755" y1="10.067" y2="37.754" gradientUnits="userSpaceOnUse"><stop offset="0" stop-color="#fede00"/><stop offset="1" stop-color="#ffd000"/></linearGradient><path fill="url(#qxHGZefLoGyk1rG4uHGF7b)" d="M44,24c0-3.647-0.992-7.056-2.697-10H6.697C4.992,16.944,4,20.353,4,24s0.992,7.056,2.698,10	h34.605C43.008,31.056,44,27.647,44,24z"/></svg>