<svg xmlns="http://www.w3.org/2000/svg"  viewBox="0 0 48 48" width="48px" height="48px" baseProfile="basic" fill="url(#-2qGzdHtaKLDn8jzcZukOa)"><linearGradient id="-2qGzdHtaKLDn8jzcZukOa" x1="24" x2="24" y1="4" y2="44" gradientUnits="userSpaceOnUse"><stop offset="0" stop-color="#0077d2"/><stop offset="1" stop-color="#0b59a2"/></linearGradient><path fill="url(#-2qGzdHtaKLDn8jzcZukOa)" d="M25,4.051L25,4.051C24.667,4.034,24.338,4,24,4c-0.235,0-0.464,0.027-0.697,0.035	l-0.002,0.001c-2.588,0.09-5.057,0.647-7.305,1.63c-0.023,0.01-0.043,0.03-0.066,0.042C14.525,6.33,13.212,7.115,12,8.027V8.31	l-0.206-0.128c-2.488,1.923-4.498,4.42-5.857,7.29l-0.011,0.007c-0.03,0.063-0.052,0.129-0.081,0.193	c-0.17,0.37-0.329,0.745-0.477,1.126c-0.021,0.055-0.048,0.107-0.069,0.162l0.01-0.006c-0.059,0.155-0.121,0.309-0.175,0.466	c-0.033,0.08-0.08,0.158-0.108,0.24C4.36,19.652,4,21.784,4,24c0,11.046,8.954,20,20,20s20-8.954,20-20	C44,13.292,35.578,4.575,25,4.051z"/><linearGradient id="-2qGzdHtaKLDn8jzcZukOb" x1="12" x2="36" y1="24" y2="24" gradientUnits="userSpaceOnUse"><stop offset="0" stop-color="#ffda1c"/><stop offset="1" stop-color="#feb705"/></linearGradient><path fill="url(#-2qGzdHtaKLDn8jzcZukOb)" d="M24,12l0.547,1.116l1.222,0.178l-0.884,0.868l0.209,1.227L24,14.81l-1.093,0.579l0.209-1.227	l-0.884-0.868l1.222-0.178L24,12z M18.746,13.582l0.547,1.116l1.222,0.179l-0.884,0.868l0.209,1.227l-1.093-0.579l-1.093,0.579	l0.208-1.227l-0.884-0.868l1.223-0.179L18.746,13.582z M15.013,17.049l0.547,1.116l1.223,0.178l-0.884,0.868l0.208,1.227	l-1.093-0.579l-1.093,0.579l0.209-1.227l-0.884-0.868l1.222-0.178L15.013,17.049z M29.254,13.582l-0.547,1.116l-1.222,0.179	l0.884,0.868l-0.209,1.227l1.093-0.579l1.093,0.579l-0.208-1.227l0.884-0.868l-1.223-0.179L29.254,13.582z M18.746,30.445	l0.547,1.116l1.222,0.179l-0.884,0.868l0.209,1.227l-1.093-0.579l-1.093,0.579l0.208-1.227l-0.884-0.868l1.223-0.179L18.746,30.445z M29.254,30.445l-0.547,1.116l-1.222,0.179l0.884,0.868l-0.209,1.227l1.093-0.579l1.093,0.579l-0.208-1.227l0.884-0.868	l-1.223-0.179L29.254,30.445z M32.987,17.049l-0.547,1.116l-1.223,0.178l0.884,0.868l-0.208,1.227l1.093-0.579l1.093,0.579	l-0.209-1.227l0.884-0.868l-1.222-0.178L32.987,17.049z M15.013,26.928l0.547,1.116l1.223,0.179l-0.884,0.868l0.208,1.227	l-1.093-0.579l-1.093,0.579l0.209-1.227l-0.884-0.868l1.222-0.179L15.013,26.928z M32.987,26.928l-0.547,1.116l-1.223,0.179	l0.884,0.868l-0.208,1.227l1.093-0.579l1.093,0.579l-0.209-1.227l0.884-0.868l-1.222-0.179L32.987,26.928z M34.231,22.305	l0.547,1.116L36,23.6l-0.884,0.868l0.209,1.227l-1.093-0.579l-1.093,0.579l0.209-1.227L32.461,23.6l1.223-0.179L34.231,22.305z M13.769,22.305l0.547,1.116l1.223,0.179l-0.885,0.868l0.209,1.227l-1.093-0.579l-1.093,0.579l0.209-1.227L12,23.6l1.222-0.179	L13.769,22.305z M24,32.61l0.547,1.116l1.222,0.179l-0.884,0.868L25.093,36L24,35.421L22.907,36l0.209-1.227l-0.884-0.868	l1.222-0.179L24,32.61z"/></svg>