<svg xmlns="http://www.w3.org/2000/svg"  viewBox="0 0 48 48" width="48px" height="48px" fill="url(#IOAqFQY7eaqPM15RI_1wAa)"><linearGradient id="IOAqFQY7eaqPM15RI_1wAa" x1="16.801" x2="33.391" y1="3.722" y2="49.302" gradientUnits="userSpaceOnUse"><stop offset="0" stop-color="#21ad64"/><stop offset="1" stop-color="#088242"/></linearGradient><rect width="48" height="33" y="7" fill="url(#IOAqFQY7eaqPM15RI_1wAa)"/><linearGradient id="IOAqFQY7eaqPM15RI_1wAb" x1="7" x2="41" y1="547.5" y2="547.5" gradientTransform="matrix(1 0 0 -1 0 571)" gradientUnits="userSpaceOnUse"><stop offset="0" stop-color="#ffd000"/><stop offset="1" stop-color="#ffc107"/></linearGradient><path fill="url(#IOAqFQY7eaqPM15RI_1wAb)" d="M41,23.5L24,34.833L7,23.5l17-11.333 L41,23.5z"/><linearGradient id="IOAqFQY7eaqPM15RI_1wAc" x1="18.912" x2="28.105" y1="552.588" y2="543.394" gradientTransform="matrix(1 0 0 -1 0 571)" gradientUnits="userSpaceOnUse"><stop offset="0" stop-color="#2196f3"/><stop offset="1" stop-color="#0d61a9"/></linearGradient><path fill="url(#IOAqFQY7eaqPM15RI_1wAc)" d="M30.5,23.5c0,3.591-2.909,6.5-6.5,6.5 s-6.5-2.909-6.5-6.5S20.409,17,24,17S30.5,19.909,30.5,23.5z"/><path fill="#f0f4f7" d="M18.247,20.478c-0.316,0.599-0.533,1.252-0.649,1.941c2.093-0.257,7.781-0.523,12.568,3.134 C30.38,24.908,30.5,24.218,30.5,23.5c0,0,0-0.004,0-0.007C25.912,20.385,20.895,20.261,18.247,20.478z"/></svg>