<svg xmlns="http://www.w3.org/2000/svg"  viewBox="0 0 48 48" width="48px" height="48px" baseProfile="basic" fill="url(#5IPl4nOi-VViqFWmxHbFKa)"><linearGradient id="5IPl4nOi-VViqFWmxHbFKa" x1="16.432" x2="34.391" y1="1.647" y2="36.894" gradientUnits="userSpaceOnUse"><stop offset=".008" stop-color="#f44f5a"/><stop offset=".447" stop-color="#ee3d4a"/><stop offset="1" stop-color="#e52030"/></linearGradient><polygon fill="url(#5IPl4nOi-VViqFWmxHbFKa)" points="2,9 46,9 46,24 24,25 2,24"/><linearGradient id="5IPl4nOi-VViqFWmxHbFKb" x1="16.432" x2="40.635" y1="16.647" y2="64.147" gradientUnits="userSpaceOnUse"><stop offset="0" stop-color="#dfe9f2"/><stop offset=".998" stop-color="#9ea7b0"/></linearGradient><rect width="44" height="15" x="2" y="24" fill="url(#5IPl4nOi-VViqFWmxHbFKb)"/><linearGradient id="5IPl4nOi-VViqFWmxHbFKc" x1="9.837" x2="25.593" y1="11.233" y2="42.156" gradientUnits="userSpaceOnUse"><stop offset="0" stop-color="#dfe9f2"/><stop offset=".998" stop-color="#9ea7b0"/></linearGradient><path fill="url(#5IPl4nOi-VViqFWmxHbFKc)" d="M13.621,21.688C13.023,21.893,12.385,22,11.716,22C8.564,22,6,19.543,6,16.5	S8.564,11,11.716,11c0.669,0,1.307,0.107,1.905,0.312c-2.888,0.097-5.189,2.389-5.189,5.188S10.733,21.59,13.621,21.688z M12.427,16.633L11.65,16.06l-0.776,0.573l0.299-0.924l-0.779-0.57l0.961,0.002l0.295-0.926l0.295,0.926l0.961-0.002l-0.779,0.57	L12.427,16.633z M18.52,16.633l-0.777-0.573l-0.776,0.573l0.299-0.924l-0.779-0.57l0.961,0.002l0.295-0.926l0.295,0.926L19,15.138	l-0.779,0.57L18.52,16.633z M15.477,14.457L14.7,13.884l-0.776,0.573l0.299-0.924l-0.779-0.57l0.961,0.002l0.295-0.926l0.295,0.926	l0.961-0.002l-0.779,0.57L15.477,14.457z M13.567,20.114l-0.777-0.573l-0.776,0.573l0.299-0.924l-0.779-0.57l0.961,0.002	l0.295-0.926l0.295,0.926l0.961-0.002l-0.779,0.57L13.567,20.114z M17.38,20.114l-0.777-0.573l-0.776,0.573l0.299-0.924l-0.779-0.57	l0.961,0.002l0.295-0.926l0.295,0.926l0.961-0.002l-0.779,0.57L17.38,20.114z"/></svg>