<svg xmlns="http://www.w3.org/2000/svg"  viewBox="0 0 48 48" width="48px" height="48px" fill="url(#GqRIx47lxz6Fy4MWpVXQCa)"><linearGradient id="GqRIx47lxz6Fy4MWpVXQCa" x1="13.079" x2="34.817" y1="7.128" y2="40.712" gradientUnits="userSpaceOnUse"><stop offset=".008" stop-color="#f44f5a"/><stop offset=".447" stop-color="#ee3d4a"/><stop offset="1" stop-color="#e52030"/></linearGradient><circle cx="24" cy="24" r="20" fill="url(#GqRIx47lxz6Fy4MWpVXQCa)"/><path fill="#f0f4f7" d="M24.052,26.679c-0.441,1.16-1.351,2.086-2.496,2.543l-0.063-0.148 c1.105-0.441,1.984-1.336,2.406-2.449c0.307-0.813,0.321-1.667,0.091-2.387c0.133,1.535-1.294,2.765-3.041,2.402 c-1.168-0.242-3.062,0.867-3.148,2.344c-0.078,1.325-0.934,2.192-2.332,1.973c4.68,3.901,11.772-0.933,8.671-6.782 C24.39,24.936,24.377,25.817,24.052,26.679z M20.711,29.726L20.348,30.3l-0.133-0.668l-0.66-0.168l0.594-0.332l-0.043-0.68 l0.499,0.462l0.637-0.246l-0.289,0.613l0.438,0.527L20.711,29.726z"/><path fill="#f0f4f7" d="M23.417,23.51c-0.607-0.47-1.081-1.163-1.315-2.014c-0.328-1.192-0.136-2.473,0.52-3.516 l0.137,0.086c-0.637,1.004-0.816,2.239-0.5,3.387c0.23,0.846,0.729,1.551,1.347,1.999c-1.027-1.163-0.603-3.001,1.028-3.737 c1.09-0.488,1.969-2.492,1.164-3.738c-0.718-1.113-0.535-2.316,0.723-2.961C20.472,12.602,17.602,20.548,23.417,23.51z M22.961,16.402l0.5,0.461l0.637-0.25l-0.285,0.617l0.43,0.523l-0.677-0.077l-0.367,0.57l-0.133-0.664l-0.66-0.172l0.598-0.332 L22.961,16.402z"/><path fill="#f0f4f7" d="M24.024,23.19c0.265-0.709,0.778-1.364,1.507-1.842c1.04-0.68,2.321-0.895,3.52-0.594l-0.039,0.156 c-1.153-0.293-2.391-0.082-3.391,0.574c-0.732,0.48-1.249,1.165-1.486,1.888c0.794-1.33,2.679-1.496,3.88-0.177 c0.805,0.883,2.993,1.093,3.934-0.055c0.84-1.023,2.047-1.222,3.051-0.23C33.525,17.064,25.074,16.795,24.024,23.19z M30.138,21.648l-0.367,0.57l-0.134-0.663l-0.66-0.172l0.594-0.328l-0.039-0.68l0.5,0.461l0.633-0.25l-0.285,0.617l0.434,0.523 L30.138,21.648z"/><path fill="#f0f4f7" d="M23.597,24.11c-0.647,0.469-1.492,0.726-2.414,0.683c-1.238-0.058-2.406-0.633-3.199-1.578 l0.125-0.102c0.762,0.911,1.887,1.465,3.082,1.52c0.882,0.04,1.711-0.215,2.33-0.665c-1.429,0.621-3.059-0.347-3.255-2.124 c-0.129-1.18-1.774-2.633-3.215-2.254c-1.286,0.336-2.375-0.211-2.602-1.602C12.169,23.623,18.97,28.846,23.597,24.11z M17.18,22.075l-0.043-0.676l0.5,0.457l0.633-0.246l-0.286,0.617l0.434,0.52l-0.676-0.078l-0.367,0.574l-0.133-0.668l-0.66-0.168 L17.18,22.075z"/><path fill="#f0f4f7" d="M24.368,23.693c0.805-0.004,1.644,0.281,2.37,0.86c0.968,0.77,1.57,1.918,1.656,3.145L28.23,27.71 c-0.078-1.183-0.66-2.289-1.594-3.035c-0.685-0.544-1.501-0.821-2.265-0.823c1.516,0.341,2.259,2.077,1.367,3.625 c-0.589,1.031-0.117,3.168,1.27,3.707c1.238,0.476,1.801,1.558,1.164,2.816C33.338,30.771,30.918,22.558,24.368,23.693z M28.372,29.097l-0.367,0.574l-0.133-0.668l-0.66-0.168l0.597-0.331l-0.043-0.68l0.5,0.461l0.633-0.25l-0.285,0.617l0.434,0.527 L28.372,29.097z"/></svg>