<svg xmlns="http://www.w3.org/2000/svg"  viewBox="0 0 48 48" width="48px" height="48px" fill="url(#o2UxHNlDDFjJGM7Ay8jGta)"><linearGradient id="o2UxHNlDDFjJGM7Ay8jGta" x1="10.11" x2="38.172" y1="10.11" y2="38.172" gradientUnits="userSpaceOnUse"><stop offset="0" stop-color="#dfe9f2"/><stop offset=".998" stop-color="#9ea7b0"/></linearGradient><path fill="url(#o2UxHNlDDFjJGM7Ay8jGta)" d="M44,24c0-11.045-8.955-20-20-20S4,12.955,4,24s8.955,20,20,20S44,35.045,44,24z"/><linearGradient id="o2UxHNlDDFjJGM7Ay8jGtb" x1="10.485" x2="38.346" y1="10.485" y2="38.346" gradientUnits="userSpaceOnUse"><stop offset="0" stop-color="#0d61a9"/><stop offset="1" stop-color="#16528c"/></linearGradient><path fill="url(#o2UxHNlDDFjJGM7Ay8jGtb)" d="M39.104,10.917L29,18.511V4.656C32.986,5.684,36.488,7.899,39.104,10.917z M43.344,19	c-0.315-1.221-0.74-2.395-1.268-3.515L37,19H43.344z M8.896,10.917L19,18.511V4.656C15.014,5.684,11.512,7.899,8.896,10.917z M5.923,15.485C5.395,16.605,4.971,17.779,4.656,19H11L5.923,15.485z M19,43.344v-13.98L8.896,37.083	C11.512,40.101,15.014,42.316,19,43.344z M4.656,29c0.315,1.221,0.74,2.395,1.268,3.515L11,29H4.656z M29,43.344	c3.986-1.028,7.488-3.243,10.104-6.261L29,29.364V43.344z M42.077,32.515c0.528-1.119,0.953-2.293,1.268-3.515H37L42.077,32.515z"/><linearGradient id="o2UxHNlDDFjJGM7Ay8jGtc" x1="11.764" x2="34.275" y1="11.764" y2="34.275" gradientUnits="userSpaceOnUse"><stop offset=".008" stop-color="#f44f5a"/><stop offset=".447" stop-color="#ee3d4a"/><stop offset="1" stop-color="#e52030"/></linearGradient><path fill="url(#o2UxHNlDDFjJGM7Ay8jGtc)" d="M43.751,21H27V4.249C26.019,4.101,25.022,4,24,4s-2.019,0.101-3,0.249V21H4.249 C4.101,21.981,4,22.978,4,24s0.101,2.019,0.249,3H21v16.751C21.981,43.899,22.978,44,24,44s2.019-0.101,3-0.249V27h16.751 C43.899,26.019,44,25.022,44,24S43.899,21.981,43.751,21z M41.513,14.348c-0.377-0.682-0.802-1.332-1.253-1.962L31,19h4 L41.513,14.348z M17,19l-9.26-6.615c-0.451,0.63-0.876,1.28-1.253,1.962L13,19H17z M6.487,33.652 c0.377,0.682,0.802,1.332,1.253,1.962L17,29h-4L6.487,33.652z M31,29l9.26,6.615c0.451-0.63,0.876-1.28,1.253-1.962L35,29H31z"/></svg>