<svg xmlns="http://www.w3.org/2000/svg"  viewBox="0 0 48 48" width="48px" height="48px" fill="url(#dE0yDwOWPyeb55XLsu41_a)"><linearGradient id="dE0yDwOWPyeb55XLsu41_a" x1="11.128" x2="39.412" y1="11.128" y2="39.412" gradientUnits="userSpaceOnUse"><stop offset="0" stop-color="#21ad64"/><stop offset="1" stop-color="#088242"/></linearGradient><circle cx="24" cy="24" r="20" fill="url(#dE0yDwOWPyeb55XLsu41_a)"/><linearGradient id="dE0yDwOWPyeb55XLsu41_b" x1="6" x2="42" y1="24" y2="24" gradientUnits="userSpaceOnUse"><stop offset="0" stop-color="#ffd000"/><stop offset="1" stop-color="#ffc107"/></linearGradient><path fill="url(#dE0yDwOWPyeb55XLsu41_b)" d="M42,24L24,36L6,24l18-12L42,24z"/><linearGradient id="dE0yDwOWPyeb55XLsu41_c" x1="18.521" x2="28.422" y1="18.521" y2="28.422" gradientUnits="userSpaceOnUse"><stop offset="0" stop-color="#2196f3"/><stop offset="1" stop-color="#0d61a9"/></linearGradient><path fill="url(#dE0yDwOWPyeb55XLsu41_c)" d="M31,24c0,3.867-3.133,7-7,7s-7-3.133-7-7s3.133-7,7-7S31,20.133,31,24z"/><path fill="#f0f4f7" d="M17.805,20.746c-0.34,0.645-0.574,1.348-0.699,2.09c2.254-0.277,8.379-0.563,13.535,3.375	C30.871,25.516,31,24.773,31,24c0,0,0-0.004,0-0.008C26.059,20.645,20.656,20.512,17.805,20.746z"/></svg>