<svg xmlns="http://www.w3.org/2000/svg"  viewBox="0 0 48 48" width="48px" height="48px" fill="url(#j6Atu7Rn076B7_OU5DuWta)"><linearGradient id="j6Atu7Rn076B7_OU5DuWta" x1="6.949" x2="37.299" y1="-8.801" y2="21.549" gradientUnits="userSpaceOnUse"><stop offset="0" stop-color="#db3542"/><stop offset=".996" stop-color="#ba0b1a"/></linearGradient><rect width="48" height="2.5" y="7" fill="url(#j6Atu7Rn076B7_OU5DuWta)"/><linearGradient id="j6Atu7Rn076B7_OU5DuWtb" x1="6.949" x2="37.299" y1="-3.801" y2="26.549" gradientUnits="userSpaceOnUse"><stop offset="0" stop-color="#db3542"/><stop offset=".996" stop-color="#ba0b1a"/></linearGradient><rect width="48" height="2.5" y="12" fill="url(#j6Atu7Rn076B7_OU5DuWtb)"/><linearGradient id="j6Atu7Rn076B7_OU5DuWtc" x1="6.949" x2="37.299" y1="1.199" y2="31.549" gradientUnits="userSpaceOnUse"><stop offset="0" stop-color="#db3542"/><stop offset=".996" stop-color="#ba0b1a"/></linearGradient><rect width="48" height="2.5" y="17" fill="url(#j6Atu7Rn076B7_OU5DuWtc)"/><linearGradient id="j6Atu7Rn076B7_OU5DuWtd" x1="6.949" x2="37.299" y1="6.199" y2="36.549" gradientUnits="userSpaceOnUse"><stop offset="0" stop-color="#db3542"/><stop offset=".996" stop-color="#ba0b1a"/></linearGradient><rect width="48" height="2.5" y="22" fill="url(#j6Atu7Rn076B7_OU5DuWtd)"/><linearGradient id="j6Atu7Rn076B7_OU5DuWte" x1="6.949" x2="37.299" y1="11.199" y2="41.549" gradientUnits="userSpaceOnUse"><stop offset="0" stop-color="#db3542"/><stop offset=".996" stop-color="#ba0b1a"/></linearGradient><rect width="48" height="2.5" y="27" fill="url(#j6Atu7Rn076B7_OU5DuWte)"/><linearGradient id="j6Atu7Rn076B7_OU5DuWtf" x1="6.949" x2="37.299" y1="16.199" y2="46.549" gradientUnits="userSpaceOnUse"><stop offset="0" stop-color="#db3542"/><stop offset=".996" stop-color="#ba0b1a"/></linearGradient><rect width="48" height="2.5" y="32" fill="url(#j6Atu7Rn076B7_OU5DuWtf)"/><linearGradient id="j6Atu7Rn076B7_OU5DuWtg" x1="6.78" x2="37.431" y1="21.28" y2="51.931" gradientUnits="userSpaceOnUse"><stop offset="0" stop-color="#db3542"/><stop offset=".996" stop-color="#ba0b1a"/></linearGradient><rect width="48" height="3" y="37" fill="url(#j6Atu7Rn076B7_OU5DuWtg)"/><linearGradient id="j6Atu7Rn076B7_OU5DuWth" x1="10.86" x2="36.855" y1="-2.39" y2="23.605" gradientUnits="userSpaceOnUse"><stop offset="0" stop-color="#dfe9f2"/><stop offset="1" stop-color="#bfc8d1"/></linearGradient><rect width="48" height="2.5" y="9.5" fill="url(#j6Atu7Rn076B7_OU5DuWth)"/><linearGradient id="j6Atu7Rn076B7_OU5DuWti" x1="10.86" x2="36.855" y1="2.61" y2="28.605" gradientUnits="userSpaceOnUse"><stop offset="0" stop-color="#dfe9f2"/><stop offset="1" stop-color="#bfc8d1"/></linearGradient><rect width="48" height="2.5" y="14.5" fill="url(#j6Atu7Rn076B7_OU5DuWti)"/><linearGradient id="j6Atu7Rn076B7_OU5DuWtj" x1="10.86" x2="36.855" y1="7.61" y2="33.605" gradientUnits="userSpaceOnUse"><stop offset="0" stop-color="#dfe9f2"/><stop offset="1" stop-color="#bfc8d1"/></linearGradient><rect width="48" height="2.5" y="19.5" fill="url(#j6Atu7Rn076B7_OU5DuWtj)"/><linearGradient id="j6Atu7Rn076B7_OU5DuWtk" x1="10.86" x2="36.855" y1="12.61" y2="38.605" gradientUnits="userSpaceOnUse"><stop offset="0" stop-color="#dfe9f2"/><stop offset="1" stop-color="#bfc8d1"/></linearGradient><rect width="48" height="2.5" y="24.5" fill="url(#j6Atu7Rn076B7_OU5DuWtk)"/><linearGradient id="j6Atu7Rn076B7_OU5DuWtl" x1="10.86" x2="36.855" y1="17.61" y2="43.605" gradientUnits="userSpaceOnUse"><stop offset="0" stop-color="#dfe9f2"/><stop offset="1" stop-color="#bfc8d1"/></linearGradient><rect width="48" height="2.5" y="29.5" fill="url(#j6Atu7Rn076B7_OU5DuWtl)"/><linearGradient id="j6Atu7Rn076B7_OU5DuWtm" x1="10.86" x2="36.855" y1="22.61" y2="48.605" gradientUnits="userSpaceOnUse"><stop offset="0" stop-color="#dfe9f2"/><stop offset="1" stop-color="#bfc8d1"/></linearGradient><rect width="48" height="2.5" y="34.5" fill="url(#j6Atu7Rn076B7_OU5DuWtm)"/><linearGradient id="j6Atu7Rn076B7_OU5DuWtn" x1="1.453" x2="42.81" y1="5.203" y2="46.56" gradientUnits="userSpaceOnUse"><stop offset="0" stop-color="#0d61a9"/><stop offset="1" stop-color="#16528c"/></linearGradient><rect width="24" height="17.5" y="7" fill="url(#j6Atu7Rn076B7_OU5DuWtn)"/><polygon fill="#99f0ff" points="12,9 12.213,9.657 12.905,9.657 12.346,10.063 12.559,10.721 12,10.314 11.441,10.721 11.654,10.063 11.095,9.657 11.787,9.657"/><polygon fill="#99f0ff" points="8.752,9.801 9.246,10.283 9.858,9.962 9.552,10.581 10.047,11.064 9.363,10.964 9.056,11.584 8.94,10.902 8.256,10.803 8.868,10.481"/><polygon fill="#99f0ff" points="6.248,12.019 6.91,12.216 7.302,11.648 7.319,12.338 7.982,12.536 7.33,12.766 7.346,13.456 6.926,12.907 6.275,13.137 6.667,12.568"/><polygon fill="#99f0ff" points="5.062,15.147 5.739,15.014 5.823,14.328 6.159,14.932 6.837,14.799 6.367,15.305 6.702,15.909 6.075,15.618 5.605,16.124 5.688,15.438"/><polygon fill="#99f0ff" points="5.465,18.468 6.003,18.035 5.758,17.389 6.336,17.768 6.875,17.335 6.694,18.002 7.272,18.38 6.581,18.414 6.4,19.081 6.155,18.434"/><polygon fill="#99f0ff" points="7.365,21.221 7.641,20.588 7.124,20.129 7.811,20.196 8.088,19.562 8.237,20.237 8.925,20.304 8.329,20.654 8.478,21.329 7.961,20.871"/><polygon fill="#99f0ff" points="10.327,22.775 10.277,22.087 9.606,21.921 10.246,21.661 10.196,20.971 10.642,21.499 11.282,21.239 10.917,21.826 11.363,22.354 10.692,22.189"/><polygon fill="#99f0ff" points="13.673,22.775 13.308,22.189 12.637,22.354 13.083,21.826 12.718,21.239 13.358,21.499 13.804,20.971 13.754,21.661 14.394,21.921 13.723,22.087"/><polygon fill="#99f0ff" points="16.635,21.221 16.039,20.871 15.522,21.329 15.671,20.654 15.075,20.304 15.763,20.237 15.912,19.562 16.189,20.196 16.876,20.129 16.359,20.588"/><polygon fill="#99f0ff" points="18.535,18.468 17.845,18.434 17.6,19.081 17.419,18.414 16.728,18.38 17.306,18.002 17.125,17.335 17.664,17.768 18.242,17.389 17.997,18.035"/><polygon fill="#99f0ff" points="18.938,15.147 18.312,15.438 18.395,16.124 17.925,15.618 17.298,15.909 17.633,15.305 17.163,14.799 17.841,14.932 18.177,14.328 18.261,15.014"/><polygon fill="#99f0ff" points="17.752,12.019 17.333,12.568 17.725,13.137 17.074,12.907 16.654,13.456 16.67,12.766 16.018,12.536 16.681,12.338 16.698,11.648 17.09,12.216"/><polygon fill="#99f0ff" points="15.248,9.801 15.132,10.481 15.744,10.803 15.06,10.902 14.944,11.584 14.637,10.964 13.953,11.064 14.448,10.581 14.142,9.962 14.754,10.283"/></svg>