<svg xmlns="http://www.w3.org/2000/svg"  viewBox="0 0 48 48" width="48px" height="48px" fill="url(#Ek0b0RMdJuSw803M90Ad2a)"><linearGradient id="Ek0b0RMdJuSw803M90Ad2a" x1="9.858" x2="38.142" y1="9.858" y2="38.142" gradientUnits="userSpaceOnUse"><stop offset="0" stop-color="#f44f5a"/><stop offset=".443" stop-color="#ee3d4a"/><stop offset="1" stop-color="#e52030"/></linearGradient><path fill="url(#Ek0b0RMdJuSw803M90Ad2a)" d="M44,24c0,11.045-8.955,20-20,20S4,35.045,4,24S12.955,4,24,4S44,12.955,44,24z"/><linearGradient id="Ek0b0RMdJuSw803M90Ad2b" x1="6.97" x2="19.247" y1="23.15" y2="23.15" gradientUnits="userSpaceOnUse"><stop offset="0" stop-color="#fede00"/><stop offset="1" stop-color="#ffd000"/></linearGradient><polygon fill="url(#Ek0b0RMdJuSw803M90Ad2b)" points="13.108,17.312 14.558,21.772 19.247,21.772 15.453,24.528 16.903,28.989 13.108,26.232 9.314,28.989 10.764,24.528 6.97,21.772 11.659,21.772"/><linearGradient id="Ek0b0RMdJuSw803M90Ad2c" x1="26.208" x2="30.352" y1="27.896" y2="27.896" gradientUnits="userSpaceOnUse"><stop offset="0" stop-color="#fede00"/><stop offset="1" stop-color="#ffd000"/></linearGradient><polygon fill="url(#Ek0b0RMdJuSw803M90Ad2c)" points="28.224,25.902 28.769,27.389 30.352,27.331 29.106,28.309 29.651,29.796 28.336,28.913 27.089,29.891 27.523,28.367 26.208,27.484 27.791,27.425"/><linearGradient id="Ek0b0RMdJuSw803M90Ad2d" x1="26.141" x2="30.226" y1="21.69" y2="21.69" gradientUnits="userSpaceOnUse"><stop offset="0" stop-color="#fede00"/><stop offset="1" stop-color="#ffd000"/></linearGradient><polygon fill="url(#Ek0b0RMdJuSw803M90Ad2d)" points="27.342,19.636 28.444,20.775 29.867,20.079 29.125,21.479 30.226,22.617 28.666,22.344 27.923,23.743 27.701,22.174 26.141,21.901 27.564,21.205"/><linearGradient id="Ek0b0RMdJuSw803M90Ad2e" x1="22.065" x2="26.112" y1="17.312" y2="17.312" gradientUnits="userSpaceOnUse"><stop offset="0" stop-color="#fede00"/><stop offset="1" stop-color="#ffd000"/></linearGradient><polygon fill="url(#Ek0b0RMdJuSw803M90Ad2e)" points="22.304,15.809 23.758,16.436 24.805,15.247 24.657,16.824 26.112,17.452 24.566,17.799 24.419,19.377 23.611,18.014 22.065,18.361 23.112,17.172"/><linearGradient id="Ek0b0RMdJuSw803M90Ad2f" x1="22.153" x2="26.144" y1="32.491" y2="32.491" gradientUnits="userSpaceOnUse"><stop offset="0" stop-color="#fede00"/><stop offset="1" stop-color="#ffd000"/></linearGradient><polygon fill="url(#Ek0b0RMdJuSw803M90Ad2f)" points="24.719,30.419 24.657,32.002 26.144,32.55 24.619,32.98 24.558,34.564 23.677,33.247 22.153,33.678 23.133,32.433 22.252,31.116 23.739,31.664"/></svg>