<svg xmlns="http://www.w3.org/2000/svg" viewBox="0 0 64 64" id="data-transfer"><g data-name="data transfer"><path d="M34,60H52V44H34Zm2-13a1,1,0,0,1,1-1h8a1,1,0,0,1,1,1v2h3a1,1,0,0,1,1,1v7a1,1,0,0,1-1,1H41a1,1,0,0,1-1-1V55H37a1,1,0,0,1-1-1Z"></path><polygon points="41.414 36 35.414 42 52.586 42 58.586 36 41.414 36"></polygon><rect width="2" height="2" x="42" y="51"></rect><path d="M21 22c11 0 17-2.643 17-4V10.823C34.714 12.914 27.836 14 21 14S7.286 12.914 4 10.823V18C4 19.357 10 22 21 22zm-1-5h2v2H20zM42 56h6V51H46v3a1 1 0 0 1-1 1H42zM40 50a1 1 0 0 1 1-1h3V48H38v5h2z"></path><path d="M21,32c11,0,17-2.643,17-4V20.823C34.714,22.914,27.836,24,21,24S7.286,22.914,4,20.823V28C4,29.357,10,32,21,32Zm-1-4h2v2H20Z"></path><ellipse cx="21" cy="8" rx="17" ry="4"></ellipse><path d="M34.248,40.338,38,36.586V30.823C34.714,32.914,27.836,34,21,34S7.286,32.914,4,30.823V38c0,1.357,6,4,17,4A46.909,46.909,0,0,0,34.248,40.338ZM20,37h2v2H20Z"></path><polygon points="54 43.414 54 58.586 60 52.586 60 37.414 54 43.414"></polygon><path d="M49 26v6h2V26a3 3 0 0 0-3-3H42v2h6A1 1 0 0 1 49 26zM22 52V46H20v6a3 3 0 0 0 3 3h7V53H23A1 1 0 0 1 22 52z"></path></g></svg>