<svg xmlns="http://www.w3.org/2000/svg"  viewBox="0 0 48 48" width="48px" height="48px" baseProfile="basic" fill="url(#61BnZA7zWz8h3PPZepZwra)"><radialGradient id="61BnZA7zWz8h3PPZepZwra" cx="3.795" cy="-13.73" r="83.425" gradientUnits="userSpaceOnUse"><stop offset="0" stop-color="#23d9d6"/><stop offset=".159" stop-color="#22c7da"/><stop offset=".479" stop-color="#1e97e6"/><stop offset=".927" stop-color="#194bf8"/><stop offset="1" stop-color="#183efb"/></radialGradient><path fill="url(#61BnZA7zWz8h3PPZepZwra)" d="M13.714,42C9.46,42,6,38.54,6,34.286V13.714C6,9.46,9.46,6,13.714,6h20.571	C38.54,6,42,9.46,42,13.714v20.571C42,38.54,38.54,42,34.286,42H13.714z"/><path fill="#fff" d="M15.445,20.679c-2.644-1.289-3.57-1.454-5.619-1.322s-2.049,1.157-1.554,1.19 C8.768,20.58,8.9,20.613,8.9,20.613l0.1-0.23l-0.595-0.264c0,0,2.578-0.661,5.784,0.892s4.032,3.57,3.14,4.561 c-0.892,0.991-2.446,1.487-4.362,1.058C12.934,25.274,13,24.283,13,24.283s1.785-0.066,2.248,0.264s0.066,0.528-0.231,0.628 c0.43,0.264,0.76,0.364,1.058,0c0.297-0.364,0.628-1.917-3.007-1.818c-0.068-0.628,0.131-1.058-0.398-1.686 c-0.528-0.628-0.528,1.719-0.528,1.719s-1.355,0.198-2.479,0.991s2.313,2.71,2.313,2.71s0.066,0.86,0.562,0.958 C13.033,28.148,13,27.421,13,27.421s2.974,0.86,4.958-0.892C19.94,24.778,18.089,21.968,15.445,20.679z M12.008,26.397 c0,0-1.124-0.463-1.752-1.025s-0.43-0.661-0.132-0.727c0.297-0.066,1.454-0.364,1.95-0.364L12.008,26.397z"/><path fill="#fff" d="M19.246,23.555c0,0-0.166,1.917-0.099,3.107c0.033,0.496,0.827,0.595,0.827,0.099 c0-0.496-0.033-2.479-0.099-2.876C19.807,23.489,19.444,23.158,19.246,23.555z"/><path fill="#fff" d="M23.741,23.323c0,0-1.818-0.397-3.04,0.397c-0.595,0.397-0.43,1.124-0.099,1.157 c0.33,0.033,2.016,0.099,2.413,0.364s0.496,0.463,0.066,0.727s-1.388,0.397-1.785,0.264c-0.397-0.132-0.528-0.827,0.198-0.463 c0.727,0.364,2.049-0.066,1.157-0.364c-0.892-0.297-1.619-0.231-2.082,0.099c-0.463,0.33,0.166,1.025,0.694,1.256 s1.521,0.297,2.115-0.066c0.595-0.364,0.892-1.752-0.066-1.983s-1.554-0.198-1.983-0.264c-0.43-0.066-0.231-0.231,0.463-0.297 s1.19-0.099,1.785-0.198C24.17,23.852,24.203,23.423,23.741,23.323z"/><path fill="#fff" d="M26.187,23.819c0.066,0.297,0.33,1.421,0.33,1.884c-0.33-0.496-0.86-1.487-1.322-1.95 c-0.463-0.463-0.595-0.066-0.595-0.066s-0.463,1.685-0.33,2.776c0.132,1.091,0.694,0.33,0.727,0 c0.033-0.33,0.099-1.421,0.099-1.719c0.297,0.661,0.76,1.421,1.124,1.785s0.727,0.132,0.86-0.198 c0.132-0.33,0.562-2.115-0.463-3.305C25.593,21.838,26.12,23.522,26.187,23.819z"/><path fill="#fff" d="M29.722,25.835c-0.364,0.033-1.421,0.198-1.421,0.198l0.231-0.694c0,0,0.694,0.033,1.256-0.033 s0.166-0.694-0.033-0.694c-0.198,0-0.925,0-0.925,0l0.166-0.463c0,0,1.223-0.033,1.619-0.099c0.397-0.066-0.231-0.727-0.694-0.76 s-1.454,0.099-2.115,0.231s0.43,0.628,0.43,0.628s-0.099,0.33-0.231,0.562c-0.397,0.066-0.364,0.297-0.231,0.595 C27.51,26,27.377,26.86,28.138,27.124c0.76,0.264,1.652-0.43,2.016-0.727C30.516,26.098,30.086,25.802,29.722,25.835z"/><path fill="#fff" d="M32.532,23.886c-0.496,0.496-1.355,1.785-1.355,1.785c0.099-0.86,0.33-1.091,0.86-1.95 c0.452-0.734-0.264-0.463-0.264-0.463s-1.685,1.421-0.958,3.04c-0.496,1.223-1.289,2.974-0.132,3.9 c0.297,0.198,0.198-0.397,0.297-0.727s0.43-2.016,0.76-2.479c0.793-0.066,2.215-0.364,2.446-2.512 C34.283,23.092,33.028,23.389,32.532,23.886z M33.556,24.976c-0.33,0.892-1.454,1.025-1.454,1.025s0.727-1.19,1.091-1.521 C33.556,24.15,33.887,24.084,33.556,24.976z"/><path fill="#fff" d="M21.262,21.968c0.661-0.661,0.958-1.884-0.198-1.818c0,0-0.43-0.562-1.355-0.297 c-0.925,0.264-2.082,1.487-1.256,2.28c0,0.364,0.099,1.058,0.595,0.43C19.576,22.795,20.601,22.629,21.262,21.968z M18.75,21.605 c-0.099-0.496,0.166-0.958,1.025-1.124C19.774,20.482,18.882,21.208,18.75,21.605z M20.733,20.779 c0.925-0.364,0.628,0.528,0.132,0.892s-0.991,0.463-1.586,0.297C19.279,21.968,19.807,21.142,20.733,20.779z"/><path fill="#fff" d="M39.89,24.282h-1.989c-0.041-0.658-0.12-1.359-0.266-2.02c-0.008-0.037-0.039-0.066-0.076-0.068 c-0.218-0.017-0.257-0.005-0.523,0.001c-0.073,0.002-0.124,0.071-0.105,0.141c0.082,0.304,0.162,1.08,0.202,1.945h-1.889 c-0.058,0-0.107,0.048-0.11,0.105l-0.05,0.501c-0.004,0.08,0.065,0.146,0.145,0.137l1.928,0.007c0.011,0.71-0.01,1.409-0.083,1.904 c-0.007,0.05,0.032,0.092,0.082,0.095c0.303,0.018,0.534,0.024,0.649,0.026c0.046,0.001,0.084-0.034,0.088-0.08 c0.018-0.241,0.063-0.997,0.041-1.942l1.957,0.007c0.061,0,0.11-0.049,0.11-0.111v-0.54C40.001,24.332,39.951,24.282,39.89,24.282z"/><path fill="#fff" d="M24.488,12c-0.759,0-1.496,0.084-2.222,0.205v0c-1.925,0.321-3.706,1.044-5.266,2.088 c-1.495,1-2.792,2.274-3.79,3.772c0.349,0.076,0.687,0.17,1.018,0.272c0.766-1.085,1.71-2.03,2.772-2.825 c1.527-1.143,3.317-1.94,5.267-2.291v0C22.991,13.09,23.727,13,24.488,13c5.267,0,9.78,3.261,11.645,7.867h1.064 C35.28,15.699,30.315,12,24.488,12z"/></svg>