<svg xmlns="http://www.w3.org/2000/svg"  viewBox="0 0 80 80" width="80px" height="80px" fill="#f2faff"><path fill="#f2faff" d="M8,70.5c-3.032,0-5.5-2.467-5.5-5.5V17c0-3.033,2.468-5.5,5.5-5.5h64c3.032,0,5.5,2.467,5.5,5.5v48 c0,3.033-2.468,5.5-5.5,5.5H8z"/><path fill="#66798f" d="M72,12c2.757,0,5,2.243,5,5v48c0,2.757-2.243,5-5,5H8c-2.757,0-5-2.243-5-5V17c0-2.757,2.243-5,5-5 H72 M72,11H8c-3.314,0-6,2.686-6,6v48c0,3.314,2.686,6,6,6h64c3.314,0,6-2.686,6-6V17C78,13.686,75.314,11,72,11L72,11z"/><path fill="#a8deff" d="M8.07,66.5c-0.866,0-1.57-0.705-1.57-1.57V17.07c0-0.866,0.704-1.57,1.57-1.57H66.93 c0.866,0,1.57,0.705,1.57,1.57V64.93c0,0.866-0.704,1.57-1.57,1.57H8.07z"/><path fill="#788b9c" d="M66.929,16C67.52,16,68,16.48,68,17.071v47.859C68,65.52,67.52,66,66.929,66H8.071 C7.48,66,7,65.52,7,64.929V17.071C7,16.48,7.48,16,8.071,16H66.929 M66.929,15H8.071C6.927,15,6,15.927,6,17.071v47.859 C6,66.073,6.927,67,8.071,67h58.859C68.073,67,69,66.073,69,64.929V17.071C69,15.927,68.073,15,66.929,15L66.929,15z"/><g><path fill="#f2faff" d="M73 39.5A1.5 1.5 0 1 0 73 42.5A1.5 1.5 0 1 0 73 39.5Z"/><path fill="#66798f" d="M73,40c0.551,0,1,0.449,1,1s-0.449,1-1,1s-1-0.449-1-1S72.449,40,73,40 M73,39c-1.105,0-2,0.895-2,2 s0.895,2,2,2s2-0.895,2-2S74.105,39,73,39L73,39z"/></g><path fill="#4da7db" d="M38.583,31.575c0.713-0.856,1.854-1.426,2.853-1.569c0.143,1.141-0.285,2.282-0.856,2.995	c-0.713,0.856-1.712,1.426-2.853,1.426C37.442,33.43,37.87,32.431,38.583,31.575z M44.716,45.981c-0.856,1.141-1.997,2.71-3.28,2.71	c-1.284,0-1.569-0.856-3.138-0.713c-1.712,0-1.997,0.856-3.28,0.713c-1.426,0-2.425-1.284-3.138-2.567	c-2.139-3.28-2.425-7.274-0.998-9.413c0.998-1.426,2.425-2.282,3.851-2.282s2.425,0.856,3.566,0.856s1.854-0.856,3.566-0.856	c1.284,0,2.567,0.713,3.566,1.854c-3.138,1.712-2.567,6.133,0.571,7.417C45.429,44.697,45.144,45.125,44.716,45.981z"/></svg>