<svg xmlns="http://www.w3.org/2000/svg"  viewBox="0 0 48 48" width="48px" height="48px" fill="url(#XCMhBO2Tuj0MTK9K0BhN7a)"><linearGradient id="XCMhBO2Tuj0MTK9K0BhN7a" x1="3.979" x2="43.979" y1="25" y2="25" gradientUnits="userSpaceOnUse"><stop offset="0" stop-color="#0d61a9"/><stop offset="1" stop-color="#16528c"/></linearGradient><path fill="url(#XCMhBO2Tuj0MTK9K0BhN7a)" d="M35.161,38.712	c-4.975,1.504-9.67,0.807-12.228,0.139c-0.07,1.03-0.182,1.461-0.351,1.628c-0.197,0.223-1.827,1.141-2.727-0.167	c-0.394-0.626-0.591-1.754-0.702-2.784c-5.762-2.589-8.433-6.403-8.517-6.543c-0.141-0.139-1.447-1.489-0.141-3.16	c1.223-1.504,5.27-3.021,8.897-3.619c0.141-3.063,0.478-5.428,0.914-6.473c0.52-1.253,1.187-0.139,1.771,0.696	c0.478,0.626,0.773,3.313,0.801,5.457c2.361-0.111,3.795,0.062,6.423,0.557c3.457,0.585,5.762,2.338,5.58,4.315	c-0.169,1.949-1.967,2.756-2.67,2.812c-0.703,0.056-1.827-0.459-1.827-0.459c-0.787-0.362-0.07-0.696,0.844-1.086	c1.012-0.487,0.787-0.974,0.787-0.974c-0.366-1.114-4.85-1.857-9.305-1.857c0,2.436,0.098,6.473,0.169,8.825	c3.12,0.585,5.453,0.459,5.453,0.459s11.384-0.32,11.708-7.517c0.357-7.205-11.384-14.108-20.029-16.281	c-8.63-2.241-13.521-0.654-13.937-0.446c-0.464,0.223-0.042,0.306-0.042,0.306s0.464,0.069,1.312,0.348s0.169,0.696,0.169,0.696	c-1.475,0.495-3.12,0.209-3.437-0.459c-0.323-0.654,0.211-1.253,0.844-2.129c0.591-0.905,1.265-0.877,1.265-0.877	c10.674-3.691,23.718,2.922,23.718,2.922c12.199,6.097,14.281,13.266,14.062,16.05c-0.197,2.742-1.265,7.378-8.785,9.633 M11.689,28.759c-1.209,0.557-0.366,1.448-0.366,1.448c2.277,2.414,5.06,3.926,7.731,4.871c0.309-4.176,0.281-5.665,0.281-7.768	C15.203,27.589,12.814,28.257,11.689,28.759"/></svg>