<svg xmlns="http://www.w3.org/2000/svg"  viewBox="0 0 40 40" width="40px" height="40px" fill="#98ccfd"><path fill="#98ccfd" d="M20,32.534c-6.893,0-12.5-5.607-12.5-12.5s5.607-12.5,12.5-12.5s12.5,5.607,12.5,12.5 S26.893,32.534,20,32.534z"/><path fill="#4788c7" d="M20,8.035c6.617,0,12,5.383,12,12s-5.383,12-12,12s-12-5.383-12-12S13.383,8.035,20,8.035 M20,7.035c-7.18,0-13,5.82-13,13s5.82,13,13,13s13-5.82,13-13S27.18,7.035,20,7.035L20,7.035z"/><path fill="#dff0fe" d="M34.926,20.086c-0.475-0.526-1.258-1.141-2.044-1.716C32.952,18.917,33,19.469,33,20.035 c0,0.174-0.018,0.342-0.025,0.514c0.431,0.356,0.93,0.826,1.52,1.489c0.997,1.217,1.502,2.38,1.502,3.464 c0,1.005-0.306,3.632-5.833,3.632c-4.26,0-9.567-1.375-13.519-3.503C10.258,22.117,5.07,16.054,5.07,12.11 c0-2.463,3.023-2.7,4.794-2.736c0.481,0.002,1.406,0.149,2.263,0.341c0.46-0.352,0.94-0.678,1.445-0.967 c-0.181-0.065-0.348-0.12-0.466-0.15c-0.569-0.13-1.205-0.261-1.887-0.379C10.22,8.076,9.211,8,8.248,8 C8.1,8,7.957,8.002,7.818,8.005c-3.067,0.079-5.312,0.94-6.326,2.427c-0.724,1.246-0.514,2.815-0.209,3.915 c1.128,4.064,5.87,10.073,13.918,14.338C20.349,31.428,25.989,33,30.679,33c3.909,0,6.789-1.071,7.902-2.938 c0.297-0.453,0.424-0.935,0.421-1.526C38.996,27.369,38.643,23.759,34.926,20.086z"/><path fill="#4788c7" d="M33.748,22.703c0.82,1.002,1.249,1.954,1.249,2.799c0,1.747-1.626,2.632-4.833,2.632 c-4.107,0-9.227-1.328-13.045-3.384c-5.986-3.293-11.05-9.083-11.05-12.64c0-0.772,0.434-1.668,3.815-1.737 c0.281,0.001,0.75,0.065,1.258,0.157c0.312-0.291,0.646-0.557,0.985-0.816c-0.857-0.192-1.782-0.338-2.263-0.341 C8.092,9.41,5.07,9.648,5.07,12.11c0,3.944,5.188,10.006,11.576,13.521c3.952,2.128,9.259,3.503,13.519,3.503 c5.526,0,5.833-2.628,5.833-3.632c0-1.084-0.505-2.247-1.502-3.464c-0.59-0.663-1.089-1.133-1.52-1.489 c-0.017,0.42-0.053,0.833-0.109,1.241C33.132,22.045,33.419,22.334,33.748,22.703z"/><path fill="#4788c7" d="M35.648,19.394c-0.72-0.788-1.982-1.706-3.032-2.445c0.113,0.465,0.204,0.938,0.265,1.421 c0.786,0.575,1.569,1.19,2.044,1.716c3.718,3.673,4.07,7.282,4.076,8.45c0.003,0.591-0.124,1.073-0.421,1.526 C37.469,31.929,34.589,33,30.679,33c-4.69,0-10.331-1.572-15.478-4.314C7.153,24.421,2.412,18.411,1.284,14.348 c-0.306-1.101-0.515-2.669,0.209-3.915c1.014-1.487,3.259-2.348,6.326-2.427C7.957,8.002,8.1,8,8.248,8 c0.963,0,1.973,0.076,2.971,0.219c0.682,0.118,1.318,0.249,1.887,0.379c0.119,0.03,0.286,0.085,0.466,0.15 c0.395-0.226,0.805-0.423,1.224-0.607c-0.522-0.253-1.096-0.424-1.445-0.512c-0.671-0.154-1.324-0.285-1.963-0.395 C10.299,7.077,9.252,7,8.248,7C8.092,7,7.94,7.002,7.793,7.006C4.397,7.093,1.866,8.11,0.667,9.869l-0.02,0.03L0.628,9.93 c-0.9,1.548-0.664,3.402-0.308,4.685c1.186,4.27,6.102,10.55,14.413,14.954C20.018,32.385,25.83,34,30.679,34 c4.27,0,7.464-1.249,8.761-3.426c0.38-0.578,0.566-1.239,0.562-2.043C39.995,27.072,39.555,23.265,35.648,19.394z"/><path fill="#4788c7" d="M18.43,25.953c-0.535-0.241-1.052-0.496-1.547-0.763c-2.521-1.386-4.951-3.249-6.917-5.265 c1.965,2.01,4.396,3.878,6.912,5.263C17.375,25.456,17.894,25.711,18.43,25.953z"/><path fill="#4788c7" d="M7.58,16.187c-0.13,0.422-0.238,0.853-0.326,1.292c2.103,2.961,5.522,6.024,9.391,8.152 c3.694,1.989,8.561,3.305,12.661,3.47c0.3-0.308,0.583-0.631,0.852-0.967c-4.106-0.001-9.223-1.329-13.039-3.383 C13.106,22.543,9.516,19.214,7.58,16.187L7.58,16.187z"/><g><path fill="#b6dcfe" d="M20.666,20.604c-0.321-0.155-0.637-0.315-0.942-0.48c-3.27-1.799-6.388-4.4-8.536-7.094 c2.146,2.682,5.274,5.299,8.532,7.092C20.028,20.288,20.344,20.448,20.666,20.604z"/><path fill="#4788c7" d="M10.479,11.203c-0.037,0.04-0.073,0.08-0.109,0.12c-0.104,0.358-0.201,0.719-0.274,1.089 c2.103,2.961,5.522,6.024,9.391,8.152c3.694,1.989,8.561,3.305,12.661,3.47c0.116-0.119,0.218-0.25,0.329-0.373 c0.058-0.2,0.108-0.404,0.156-0.608c-4.042-0.075-8.967-1.374-12.672-3.369C15.984,17.496,12.428,14.208,10.479,11.203 L10.479,11.203z"/><g><path fill="#b6dcfe" d="M22.118,14.695c-2.735-1.597-5.352-3.748-7.324-6.025c0.002-0.001,0.003-0.001,0.005-0.002 C16.788,10.954,19.411,13.112,22.118,14.695z"/><path fill="#4788c7" d="M14.936,8.058c-0.319,0.135-0.627,0.29-0.933,0.449c2.113,2.576,5.128,5.125,8.484,6.971 c3.049,1.642,6.892,2.813,10.448,3.269c-0.033-0.34-0.09-0.672-0.149-1.004c-3.356-0.469-6.958-1.601-9.825-3.145 C19.829,12.875,16.967,10.47,14.936,8.058L14.936,8.058z"/></g></g><g><path fill="#4788c7" d="M22.65,32.253c-2.633-0.76-5.217-1.812-7.682-3.125c-0.331-0.175-0.659-0.354-0.982-0.538 c0.323,0.183,0.65,0.362,0.981,0.537c2.453,1.308,5.082,2.373,7.691,3.124C22.656,32.251,22.653,32.252,22.65,32.253z"/><path fill="#4788c7" d="M7.404,23.199c0.16,0.639,0.354,1.264,0.605,1.861c1.911,1.606,4.154,3.148,6.725,4.51 c2.566,1.367,5.255,2.444,7.899,3.198c0.645-0.133,1.266-0.327,1.872-0.551c-3.077-0.721-6.274-1.916-9.303-3.53 C12.105,27.045,9.504,25.146,7.404,23.199L7.404,23.199z"/></g></svg>