<svg xmlns="http://www.w3.org/2000/svg" viewBox="0 0 24 24" id="linux"><path fill="#F9C105" d="M10.83 5.59c.08-.03.19-.04.26 0 .02.01.04.03.03.05v.02h.01c-.02.06-.12.05-.17.07s-.09.07-.14.07c-.05 0-.13-.02-.14-.07-.01-.07.09-.14.15-.14zm1.02.14c-.05-.02-.15-.01-.16-.07v-.02c-.01-.02.01-.04.02-.05a.36.36 0 0 1 .27 0c.06 0 .16.07.15.14-.01.05-.09.06-.14.06s-.09-.04-.14-.06zm-1.76 1.45c.3.2.69.47 1.18.47s1.07-.27 1.42-.47c.19-.13.45-.33.65-.47.16-.13.15-.26.29-.26.13.01.03.13-.15.33-.19.13-.47.33-.7.47-.44.2-.96.53-1.51.53-.54 0-.98-.27-1.29-.47-.16-.13-.28-.26-.38-.33-.16-.13-.14-.33-.07-.33.11.01.13.13.2.2.1.06.22.2.36.33z"></path><path d="M12.13 5.73c-.01.05-.09.06-.14.06s-.09-.04-.14-.06c-.05-.02-.15-.01-.16-.07v-.02c-.01-.02.01-.04.02-.05a.36.36 0 0 1 .27 0c.06 0 .16.07.15.14z"></path><path d="M16.63 10.98v.92h-.55a10.203 10.203 0 0 1 1.06 2.91c.15-.01.33.02.52.06.08-.21.13-.42.16-.63.19-1.39-.69-2.75-1.19-3.26zm0 0v.92h-.55a10.203 10.203 0 0 1 1.06 2.91c.15-.01.33.02.52.06.08-.21.13-.42.16-.63.19-1.39-.69-2.75-1.19-3.26zm4.65 7.97v-.09l-.01-.01c-.17-.2-.25-.53-.34-.92-.08-.4-.18-.79-.5-1.05-.06-.05-.12-.06-.19-.13a.438.438 0 0 0-.19-.07c.28-.82.31-1.65.17-2.44-.07-.43-.19-.85-.35-1.25-.54-1.41-1.48-2.64-2.2-3.48-.37-.47-.75-.94-1.04-1.44-.33-.57-.55-1.18-.54-1.93.02-1.39.11-3.56-.87-4.91C14.7.5 13.85 0 12.51 0c-.16 0-.32.01-.49.02-1.27.1-2.06.56-2.55 1.21-1.15 1.52-.61 4.04-.65 5.09-.08 1.09-.3 1.95-1.06 3.02-.31.36-.67.8-1.02 1.3-.67.94-1.34 2.06-1.73 3.22-.25.75-.39 1.52-.32 2.26l.03.23c-.04.03-.08.07-.11.13-.27.27-.46.6-.67.84-.21.2-.49.27-.81.4-.32.14-.67.27-.87.68-.1.19-.14.4-.14.6s.03.41.06.54c.06.4.12.73.04.97-.25.68-.28 1.15-.11 1.49.18.33.54.46.95.6.82.2 1.93.13 2.81.6.93.46 1.89.67 2.64.47.54-.12.99-.47 1.23-.95.05 0 .09 0 .14-.01.56-.03 1.18-.26 2.14-.32.27-.02.56.01.88.05.51.08 1.09.19 1.73.15.02.13.06.19.11.33h.01c.39.78 1.12 1.13 1.9 1.07.78-.06 1.61-.53 2.29-1.3.63-.77 1.7-1.09 2.4-1.51.35-.19.64-.46.66-.85.02-.4-.2-.81-.72-1.38zM13.5 4.64c-.04-.13-.1-.2-.18-.33-.09-.07-.17-.14-.27-.14h-.02c-.09 0-.18.03-.26.14-.1.09-.17.2-.21.33-.05.13-.08.26-.09.4v.02c0 .09.01.18.02.27-.2-.07-.44-.14-.61-.21-.01-.06-.02-.13-.02-.19v-.02c-.01-.27.04-.53.15-.77.08-.22.23-.41.43-.54.18-.13.39-.2.6-.2h.02c.21 0 .4.07.59.2.19.14.33.33.44.54.11.25.16.45.17.72 0-.02.01-.04.01-.06v.1c-.01 0-.01-.01-.01-.02 0 .23-.06.47-.15.69-.05.12-.12.24-.22.33-.03-.02-.06-.03-.09-.04-.1-.05-.2-.07-.29-.13a.808.808 0 0 0-.22-.07c.05-.06.15-.13.19-.2.05-.13.08-.26.09-.4v-.02c0-.13-.02-.27-.07-.4zM9.34 4.2c.05-.2.15-.38.29-.54.13-.13.26-.2.42-.2h.03a.7.7 0 0 1 .41.14c.15.13.27.29.35.46.09.2.14.4.15.67.01.07.01.12.01.17 0 .04 0 .07-.01.1v.08a.31.31 0 0 1-.08.02c-.16.06-.28.14-.4.2.01-.08.01-.17 0-.26v-.02c-.01-.13-.04-.2-.08-.33a.65.65 0 0 0-.17-.27.256.256 0 0 0-.19-.06h-.02c-.07 0-.13.04-.18.13-.07.08-.11.17-.13.27-.02.11-.03.22-.02.33v.02c.01.13.04.2.08.33.05.13.1.2.17.27.01.01.02.02.03.02-.07.06-.11.07-.17.14a.37.37 0 0 1-.14.07c-.1-.13-.19-.26-.27-.41-.1-.21-.15-.43-.16-.66-.02-.23.01-.46.08-.67zm.11 2.11c.22-.14.38-.28.49-.34.1-.07.14-.1.17-.13h.01c.17-.21.44-.47.84-.61.14-.03.3-.06.48-.06.33 0 .74.06 1.22.4.3.2.53.27 1.07.47.26.13.41.26.49.4V6.3c.07.15.07.32.01.47-.12.32-.52.65-1.07.85-.28.13-.51.33-.79.46-.28.14-.59.3-1.02.27a.97.97 0 0 1-.45-.07c-.12-.06-.23-.12-.33-.19-.2-.14-.37-.34-.62-.47-.41-.25-.63-.52-.7-.71-.07-.27 0-.47.2-.6zm.16 15.66c-.06.74-.49 1.14-1.14 1.29-.66.13-1.54 0-2.43-.46-.97-.54-2.14-.47-2.88-.61-.38-.06-.62-.2-.74-.4-.11-.2-.11-.6.13-1.23.12-.34.03-.76-.03-1.12-.05-.4-.08-.71.05-.94.16-.34.4-.4.69-.54.3-.13.65-.2.93-.46v-.01c.26-.27.45-.6.68-.84.19-.2.38-.33.67-.33h.01c.05 0 .1 0 .16.01.38.06.71.34 1.03.75l.92 1.67h.01c.24.53.76 1.07 1.2 1.64.44.6.78 1.13.74 1.57v.01zm3.29-.64c-.99.23-2.04.16-3.02-.38-.12-.06-.24-.13-.35-.21-.11-.19-.25-.37-.41-.53a1.26 1.26 0 0 0-.28-.33c.19 0 .35-.03.48-.07.14-.07.26-.19.31-.33.11-.27 0-.7-.35-1.17-.35-.46-.94-.99-1.8-1.52-.33-.21-.58-.43-.77-.67-.19-.23-.32-.47-.4-.72-.16-.54-.14-1.09-.01-1.65.15-.66.45-1.3.74-1.85.2-.35.39-.66.55-.91.1-.07.03.12-.39.91l-.03.06c-.4.75-1.15 2.5-.12 3.86.04-.99.26-1.97.65-2.88.13-.3.3-.65.48-1.04.59-1.25 1.31-2.87 1.38-4.23.05.04.22.14.29.2.22.14.39.34.6.47.21.2.48.33.89.33.04.01.07.01.11.01.41 0 .74-.13 1.01-.27.29-.13.52-.33.74-.4h.01c.47-.13.84-.4 1.06-.7.36 1.42 1.21 3.48 1.75 4.48a10.203 10.203 0 0 1 1.12 3.02c.15-.01.33.02.52.06.08-.21.13-.42.16-.63.19-1.39-.69-2.75-1.19-3.26-.03-.02-.06-.05-.08-.07-.22-.2-.23-.34-.12-.34.07.06.13.12.2.19.56.58 1.21 1.51 1.46 2.57.08.29.12.6.12.91 0 .25-.03.51-.09.76.06.03.13.06.2.07 1.05.53 1.43.93 1.25 1.53v-.04h-.2c.15-.47-.18-.83-1.08-1.22-.92-.4-1.66-.34-1.79.46-.01.04-.01.07-.02.14-.07.02-.14.05-.21.06-.43.27-.67.67-.8 1.19-.13.53-.17 1.15-.21 1.87-.02.33-.17.84-.32 1.35-.61.43-1.3.76-2.04.92zm8.3-.51c-.63.4-1.76.71-2.48 1.57-.63.74-1.39 1.14-2.06 1.19-.67.05-1.25-.2-1.59-.9h-.01c-.21-.4-.12-1.03.06-1.69.18-.67.43-1.35.47-1.9.03-.71.07-1.33.19-1.81.13-.47.32-.8.65-.99l.05-.02c.03.6.34 1.24.89 1.38.59.13 1.45-.34 1.81-.77l.21-.01c.32-.01.59.01.86.27.21.2.31.53.4.88.09.4.16.78.41 1.06.5.53.66.91.65 1.14-.02.27-.19.4-.51.6zm-4.57-9.84v.92h-.55a10.203 10.203 0 0 1 1.06 2.91c.15-.01.33.02.52.06.08-.21.13-.42.16-.63.19-1.39-.69-2.75-1.19-3.26z"></path><path fill="#F9C105" d="M14.22 6.3v.14c-.08-.14-.23-.27-.49-.4-.54-.2-.77-.27-1.07-.47-.48-.34-.89-.4-1.22-.4-.18 0-.34.03-.48.06-.4.14-.67.4-.84.61h-.01c-.03.03-.07.06-.17.13-.11.06-.27.2-.49.34-.2.13-.27.33-.2.6.07.19.29.46.7.71.25.13.42.33.62.47.1.07.21.13.33.19.14.06.29.08.45.07.43.03.74-.13 1.02-.27.28-.13.51-.33.79-.46.55-.2.95-.53 1.07-.85.06-.15.06-.32-.01-.47zm-2.53-.66c-.01-.02.01-.04.02-.05a.36.36 0 0 1 .27 0c.06 0 .16.07.15.14-.01.05-.09.06-.14.06s-.09-.04-.14-.06c-.05-.02-.15-.01-.16-.07v-.02zm-.86-.05c.08-.03.19-.04.26 0 .02.01.04.03.03.05v.02h.01c-.02.06-.12.05-.17.07s-.09.07-.14.07c-.05 0-.13-.02-.14-.07-.01-.07.09-.14.15-.14zm2.65 1.19c-.19.13-.47.33-.7.47-.44.2-.96.53-1.51.53-.54 0-.98-.27-1.29-.47-.16-.13-.28-.26-.38-.33-.16-.13-.14-.33-.07-.33.11.01.13.13.2.2.1.06.22.2.36.33.3.2.69.47 1.18.47s1.07-.27 1.42-.47c.19-.13.45-.33.65-.47.16-.13.15-.26.29-.26.13.01.03.13-.15.33zm8.23 13.44c-.02.27-.19.4-.51.6-.63.4-1.76.71-2.48 1.57-.63.74-1.39 1.14-2.06 1.19-.67.05-1.25-.2-1.59-.9h-.01c-.21-.4-.12-1.03.06-1.69.18-.67.43-1.35.47-1.9.03-.71.07-1.33.19-1.81.13-.47.32-.8.65-.99l.05-.02c.03.6.34 1.24.89 1.38.59.13 1.45-.34 1.81-.77l.21-.01c.32-.01.59.01.86.27.21.2.31.53.4.88.09.4.16.78.41 1.06.5.53.66.91.65 1.14zm-12.1 1.74v.01c-.06.74-.49 1.14-1.14 1.29-.66.13-1.54 0-2.43-.46-.97-.54-2.14-.47-2.88-.61-.38-.06-.62-.2-.74-.4-.11-.2-.11-.6.13-1.23.12-.34.03-.76-.03-1.12-.05-.4-.08-.71.05-.94.16-.34.4-.4.69-.54.3-.13.65-.2.93-.46v-.01c.26-.27.45-.6.68-.84.19-.2.38-.33.67-.33h.01c.05 0 .1 0 .16.01.38.06.71.34 1.03.75l.92 1.67h.01c.24.53.76 1.07 1.2 1.64.44.6.78 1.13.74 1.57z"></path><path d="M11.13 5.66c-.02.06-.12.05-.17.07s-.09.07-.14.07c-.05 0-.13-.02-.14-.07-.01-.07.09-.14.15-.14.08-.03.19-.04.26 0 .02.01.04.03.03.05v.02h.01zm2.35 1.12c-.19.13-.47.33-.7.47-.44.2-.96.53-1.51.53-.54 0-.98-.27-1.29-.47-.16-.13-.28-.26-.38-.33-.16-.13-.14-.33-.07-.33.11.01.13.13.2.2.1.06.22.2.36.33.3.2.69.47 1.18.47s1.07-.27 1.42-.47c.19-.13.45-.33.65-.47.16-.13.15-.26.29-.26.13.01.03.13-.15.33z"></path></svg>