<svg xmlns="http://www.w3.org/2000/svg" width="655.359" height="655.359" fill-rule="evenodd" clip-rule="evenodd" image-rendering="optimizeQuality" shape-rendering="geometricPrecision" text-rendering="geometricPrecision" viewBox="0 0 6.827 6.827" id="planet"><path fill="#039be5" d="M4.693 1.197a2.56 2.56 0 1 1-2.56 4.433 2.56 2.56 0 0 1 2.56-4.433z"></path><path fill="#ffceb4" d="m4.854 4.768-.044.006-.013-.066-.094-.009v.079l.01.105.065.054.022-.058.036-.031.077-.047.108-.023-.018-.089-.038-.025h-.043l-.029.043z"></path><path fill="#ffceb4" d="m4.818 4.692.059.005.022-.052-.016-.073-.088-.054H4.74v.063zM4.57 3.19l-.042-.016v-.078h-.04v.019l-.02.002.004.048.019.03.037.008.003.038.032.015.007-.035v-.03zM4.497 2.989l-.04-.003.005.057.039.006.027-.034z"></path><path fill="#ffceb4" d="M5.314 5.103c-.07.077-.143.151-.22.22h-.027l-.06-.116-.038.012-.002.186.017.01a2.64 2.64 0 0 1-.544.336h-.01l.001.004a2.616 2.616 0 0 1-.115.05V5.74l.077-.072.126-.013-.04-.073-.153-.039.112-.104.105-.005.087-.101.038-.038v-.117l-.105.037-.079.142-.026.024-.015-.03h-.084l-.028-.068.013-.059.052-.037-.005.096.034.026.144-.212.06-.016-.078-.086.018-.087-.172-.134-.068-.026-.008-.085v-.126l.035-.074.15-.022.07.026.028.128-.028.14.077.017.015-.06.12.02.022.141.139.099.017.101-.014.092v.033l.13-.019-.045-.11.098-.04.008-.065.068-.011.057.052.046.118zm-.62-3.906c.26.15.485.34.67.559h-.023v.133l.037.028h.042v-.093c.03.038.06.077.088.117l-.007.013-.026.115-.045.009-.007.182.059-.024.005-.163.035.038.043-.013v-.071c.043.066.083.135.12.206v.032l-.1.072-.007.12.07.071-.026.055-.098-.1-.002-.13a.426.426 0 0 1-.095.01l.005.168.045.018.007.115.067.013.012-.067.06.022.017.052-.01.18-.09-.1-.07.017-.015.104.126-.007.052.1.02.175-.113.255h-.096l-.021.082-.077-.041v-.115l-.088-.035.062-.262.11.207.068-.08-.023-.178-.016-.015-.004-.004-.053-.05-.007-.086-.042.007-.013.03-.014-.002-.01-.069-.04-.004-.003-.066.08-.012-.037-.119-.141-.242-.1.028-.044.067-.019.135h-.154l.01.063.121.058.045.144h.185l.06.08-.045.193-.122-.013v.051l.07.142-.16.007-.063.104-.095-.004-.034-.1-.032.007-.054.12-.065-.003-.003-.034h.002l.046-.151.048-.007.03.044h.045l.012-.047-.041-.012-.013-.083.003-.009h-.004L4.8 3.106l.048-.024.012-.027v-.06l-.022-.026h-.049l-.016.05-.007.05-.006-.01-.05-.046.025-.02.012-.045-.113-.12-.013.016-.099-.177-.173-.167-.078-.012-.11-.167-.083-.083-.167.009.054-.115h.097v-.32l-.084-.165-.133-.073-.105-.028-.102.047-.016.13.139.208-.069.018-.12-.063-.027.158-.244.016-.036.216.158.138-.033.167-.082.058.01.16.047.005-.043.088-.156.1-.002.17-.11.064-.136.009-.072.19-.002.238-.115.07-.034.106-.095-.02-.148-.116-.326-.034-.083-.105.005-.156-.09-.052-.17.04-.217-.17-.099-.054-.077-.162-.016-.106-.045-.004-.022.074-.048-.009-.065-.066-.05.04-.002.08-.062-.004-.061-.021-.05-.007-.1.118H.872c.012-.098.03-.195.053-.292l.04-.046.22-.125.212.018.126-.095.215.038.015-.056h.466s.119-.158.119-.167c0-.009.02-.083.02-.083l.088-.016.257-.206.093.02.15.007.1.142.17-.02.015-.208.185-.162.032-.115.013-.074.067.009.014-.095h-.038l.058-.237.146-.096.07.04.22-.15.16-.026v-.06l-.156.02-.16.103-.063-.01.014-.09.184-.107h.186c.181.055.36.132.53.23zm.706.602.016.02-.016-.004v-.016zM4.089 5.882a2.552 2.552 0 0 1-2.331-.516h.05l.139-.103h.217l.079-.08.09-.006.192.1.336-.19.228.023.018-.172.063-.063V4.76L3.116 4.7v-.203l-.018-.006v-.114l.295-.259.23.003.016.042.088.016v-.06l.093-.026.216.3h.153l.083.147-.007.06v.12l.05.095.025.305h-.156l-.061.24-.034.047v.044h.085l.013.14-.098.131v.159zm1.175-4.031.01.064c0 .005-.06 0-.06 0l-.008-.134.03-.025.028.095zm-.312.155.034.07-.015.065-.086-.022-.023-.07.09-.043zm-.203.378h-.056V2.22l.017-.06.039.015.032.077v.107H4.75v.024zm-.078.074h-.054l-.026-.04-.01-.052h.09v.092zm.022-.046h.064l-.05.056-.014-.056zm-.13.025H4.51L4.472 2.4v-.087l.059.014.003.04.02.01.01.061zm.108-.215v.09l-.16-.114.025-.048.067.01.068.062zm-.09.368H4.53v-.087l.034-.023h.049v.007l-.03.103zm.073-.08.026.025-.026.041-.027-.033.027-.033z"></path><path fill="#ffceb4" d="m4.854 4.768-.044.006-.013-.066-.094-.009v.079l.01.105.065.054.022-.058.036-.031.077-.047.108-.023-.018-.089-.038-.025h-.043l-.029.043z"></path><path fill="#ffceb4" d="m4.818 4.692.059.005.022-.052-.016-.073-.088-.054H4.74v.063zM4.57 3.19l-.042-.016v-.078h-.04v.019l-.02.002.004.048.019.03.037.008.003.038.032.015.007-.035v-.03zM4.497 2.989l-.04-.003.005.057.039.006.027-.034z"></path><path fill="none" d="M0 0h6.827v6.827H0z"></path></svg>